<svg class="main-svg" xmlns="http://www.w3.org/2000/svg" xmlns:xlink="http://www.w3.org/1999/xlink" width="1000" height="400" style="" viewBox="0 0 1000 400"><rect x="0" y="0" width="1000" height="400" style="fill: rgb(255, 255, 255); fill-opacity: 1;"/><defs id="defs-5f8b76"><g class="clips"><clipPath id="clip5f8b76xyplot" class="plotclip"><rect width="829" height="307"/></clipPath><clipPath class="axesclip" id="clip5f8b76x"><rect x="61" y="0" width="829" height="400"/></clipPath><clipPath class="axesclip" id="clip5f8b76y"><rect x="0" y="40" width="1000" height="307"/></clipPath><clipPath class="axesclip" id="clip5f8b76xy"><rect x="61" y="40" width="829" height="307"/></clipPath></g><g class="gradients"/><g class="patterns"/></defs><g class="bglayer"><rect class="bg" x="61" y="40" width="829" height="307" style="fill: rgb(229, 236, 246); fill-opacity: 1; stroke-width: 0;"/></g><g class="layer-below"><g class="imagelayer"/><g class="shapelayer"/></g><g class="cartesianlayer"><g class="subplot xy"><g class="layer-subplot"><g class="shapelayer"/><g class="imagelayer"/></g><g class="minor-gridlayer"><g class="x"/><g class="y"/></g><g class="gridlayer"><g class="x"><path class="xgrid crisp" transform="translate(188.66,0)" d="M0,40v307" style="stroke: rgb(255, 255, 255); stroke-opacity: 1; stroke-width: 1px;"/><path class="xgrid crisp" transform="translate(316.14,0)" d="M0,40v307" style="stroke: rgb(255, 255, 255); stroke-opacity: 1; stroke-width: 1px;"/><path class="xgrid crisp" transform="translate(443.8,0)" d="M0,40v307" style="stroke: rgb(255, 255, 255); stroke-opacity: 1; stroke-width: 1px;"/><path class="xgrid crisp" transform="translate(571.29,0)" d="M0,40v307" style="stroke: rgb(255, 255, 255); stroke-opacity: 1; stroke-width: 1px;"/><path class="xgrid crisp" transform="translate(698.95,0)" d="M0,40v307" style="stroke: rgb(255, 255, 255); stroke-opacity: 1; stroke-width: 1px;"/><path class="xgrid crisp" transform="translate(826.43,0)" d="M0,40v307" style="stroke: rgb(255, 255, 255); stroke-opacity: 1; stroke-width: 1px;"/></g><g class="y"><path class="ygrid crisp" transform="translate(0,276.39)" d="M61,0h829" style="stroke: rgb(255, 255, 255); stroke-opacity: 1; stroke-width: 1px;"/><path class="ygrid crisp" transform="translate(0,221.13)" d="M61,0h829" style="stroke: rgb(255, 255, 255); stroke-opacity: 1; stroke-width: 1px;"/><path class="ygrid crisp" transform="translate(0,165.87)" d="M61,0h829" style="stroke: rgb(255, 255, 255); stroke-opacity: 1; stroke-width: 1px;"/><path class="ygrid crisp" transform="translate(0,110.61)" d="M61,0h829" style="stroke: rgb(255, 255, 255); stroke-opacity: 1; stroke-width: 1px;"/><path class="ygrid crisp" transform="translate(0,55.35)" d="M61,0h829" style="stroke: rgb(255, 255, 255); stroke-opacity: 1; stroke-width: 1px;"/></g></g><g class="zerolinelayer"><path class="yzl zl crisp" transform="translate(0,331.65)" d="M61,0h829" style="stroke: rgb(255, 255, 255); stroke-opacity: 1; stroke-width: 2px;"/></g><g class="layer-between"><g class="shapelayer"/><g class="imagelayer"/></g><path class="xlines-below"/><path class="ylines-below"/><g class="overlines-below"/><g class="xaxislayer-below"/><g class="yaxislayer-below"/><g class="overaxes-below"/><g class="overplot"><g class="xy" transform="translate(61,40)" clip-path="url(#clip5f8b76xyplot)"><g class="scatterlayer mlayer"><g class="trace scatter trace27a445" style="stroke-miterlimit: 2; opacity: 0.3;"><g class="fills"/><g class="errorbars"/><g class="lines"><path class="js-line" d="M0,215.8L0.7,252.18L0.87,235.26L1.22,253.27L1.4,228.33L1.57,215.89L1.92,270.8L2.1,246.84L2.27,216.97L2.44,212.71L2.62,240.14L2.97,235.13L3.14,264.56L3.67,205.31L4.02,238.74L4.19,230.77L4.72,264.02L5.06,251.02L5.24,234.97L5.41,261.78L5.59,228.85L5.76,230.25L5.94,184.7L6.81,262.87L6.99,231.91L7.51,252.87L7.68,225.67L7.86,215.43L8.03,250.21L8.38,225.34L8.73,240.48L8.91,251.02L9.08,251.02L9.26,286.53L10.13,227.89L10.3,223.98L10.65,244.01L10.83,240.75L11,215.43L11.7,264.56L11.88,254.19L12.05,264.02L12.4,257.11L12.75,277.6L12.92,266.53L13.1,230.86L13.62,260.95L13.8,258.66L13.97,258.05L14.15,240.64L14.67,227.39L14.84,266.53L15.02,265.16L15.19,257.59L15.54,259.77L15.72,237.93L15.89,265.9L16.07,262.39L16.42,266.53L16.59,239.84L17.29,264.62L17.46,263.62L17.64,264.41L18.16,244.48L18.34,249.14L18.51,268.06L18.86,241.83L19.21,246.44L19.38,264.02L19.73,261.51L20.43,270.85L20.61,257.59L21.13,248.31L21.31,271.91L21.48,267.62L21.65,268.94L22,243.3L22.35,262.05L22.53,265.02L22.7,266.53L22.88,244.55L23.05,242.31L23.23,257.72L23.4,274.23L23.93,269.32L24.1,253.73L24.27,253.73L24.45,258.16L24.8,271.18L24.97,250.45L25.15,246.07L25.85,269.55L26.02,255.37L26.2,255.5L26.37,240.75L26.89,243.83L27.07,259.99L27.24,278.24L27.42,251.22L27.59,260.95L27.77,246.54L28.29,278.33L28.47,249.36L28.64,249.44L28.99,235.64L29.34,248.31L29.51,254.23L29.69,274.38L29.86,252.18L30.04,273.23L30.21,227.06L30.56,213.45L31.09,267.97L31.26,250.41L31.61,260.95L31.78,258.3L31.96,246.07L32.13,262.18L32.48,257.64L32.66,234.76L33.18,284.57L33.53,271.43L33.7,252.8L33.88,267.97L34.05,248.67L34.23,231.58L35.1,266.91L35.28,225.86L35.98,255.41L36.15,242.28L36.32,257.11L36.67,270.93L36.85,228.24L37.2,267.17L37.37,254.81L37.55,241.83L37.72,214.9L38.07,271.18L38.25,248.78L38.42,262.35L38.59,264.02L38.77,257.02L38.94,238.73L39.29,265.75L39.47,273.47L40.34,233.04L40.52,235.87L40.69,271.63L40.86,239.52L41.39,273.82L41.56,260.07L41.91,257.11L42.09,282.28L42.26,253.08L42.44,229.62L42.61,253.52L42.79,242.51L42.96,277.28L43.66,237.59L44.01,245.6L44.18,267.62L44.36,272.92L44.53,255L44.88,238.63L45.06,267.22L45.93,220.64L46.1,254.81L46.45,263.88L46.63,251.1L46.8,248.28L46.98,253.81L47.15,230.88L47.33,259.41L47.5,202.87L47.85,252.27L48.03,227.27L48.2,264.82L48.55,226.54L48.72,231.31L48.9,253.62L49.42,259.91L49.6,242.31L49.77,244.99L49.95,264.13L50.47,225.34L50.64,241.59L50.82,285.06L51.34,216.53L51.69,253.81L51.87,248.46L52.04,254.22L52.22,238.65L52.39,224.98L52.91,274.71L53.09,239.82L53.26,225.09L53.61,249.68L53.79,238.06L53.96,249.37L54.14,250.41L54.31,258.43L54.84,227.2L55.19,238.71L55.36,252.35L55.71,208.93L55.88,254.87L56.06,212.45L56.23,258.39L56.58,233.11L56.76,270.59L57.11,244.03L57.28,264.77L57.46,223.03L57.98,253.75L58.15,259.75L58.5,260.09L58.68,245.29L58.85,269.48L59.2,232.17L59.38,240.24L59.55,262.29L59.9,194.82L60.25,231.78L60.42,248.37L60.6,276.3L60.95,262.11L61.12,201.75L61.3,264.5L61.82,239.26L62,242.11L62.35,172.7L62.52,209.71L62.69,236.85L62.87,254.51L63.22,237L63.39,206.97L63.57,277.17L64.09,220.02L64.27,218.94L64.44,267.09L64.79,213.94L64.96,253.73L65.14,232.44L65.31,242.06L65.66,228.5L65.84,202.84L66.71,263.31L66.89,237.59L67.06,236.39L67.24,209.51L68.11,268.63L68.28,247.44L68.46,244.01L68.63,276.3L69.51,227.89L69.68,240.48L70.03,256.38L70.2,228.33L70.38,248.67L70.73,219.57L70.9,222.58L71.08,256L71.25,216.97L71.6,244.16L71.78,240.9L71.95,199.55L72.3,245.6L72.47,258.3L72.82,269L73.17,202.52L73.35,264.02L73.7,230.77L74.22,245.6L74.4,261.78L74.57,260.25L74.74,245.6L75.27,228.33L75.44,254.19L75.62,251.22L75.79,253.1L75.97,269.55L76.14,277.6L76.32,248.78L76.67,260.45L77.01,230.25L77.19,248.48L77.54,240.14L77.89,271.91L78.06,245.6L78.41,281.9L78.59,242.63L78.94,272.37L79.11,222.58L79.46,258.16L79.63,253.18L80.16,247.6L80.33,271.33L80.51,256L81.03,234.97L81.21,245.6L81.38,241.41L81.56,265.34L82.43,241.76L82.6,255.77L82.78,264.69L82.95,263.07L83.13,238.33L83.48,237.47L84,261.32L84.17,251.54L84.52,265.2L84.7,243.76L85.75,275.77L85.92,259.62L86.27,254.81L86.45,267.77L86.62,242.89L87.14,266.53L87.32,272.46L87.84,246.54L88.19,257.88L88.37,263.62L88.54,265.86L88.72,253.8L88.89,261.43L89.06,220.6L89.41,270.93L89.76,255.29L89.94,242.06L90.46,229.72L90.81,257.59L90.99,261.89L91.68,229.09L91.86,262.78L92.03,262.87L92.21,231.58L93.08,260.66L93.26,259.14L93.43,262.94L93.95,261.51L94.13,260.95L94.3,268.35L94.48,255.47L94.65,259.32L94.83,246.23L95,269L95.18,240.25L95.7,263.07L95.88,247.85L96.22,238.17L96.4,278.17L96.57,247.44L96.75,251.02L96.92,240.48L97.27,261.78L97.45,265.75L98.15,238.66L98.32,250.02L98.5,265.02L98.67,237.83L98.84,222.58L99.19,264.69L99.37,246.23L99.54,221.11L99.72,264.91L100.24,248.48L100.42,244.89L100.59,210.12L100.77,248.78L101.11,239.84L101.29,232.44L102.16,253.97L102.34,234.3L102.51,211.67L102.69,266.53L102.86,266.91L103.56,210.39L103.91,218.51L104.08,267.24L104.61,242.63L104.96,249.05L105.13,249.94L105.31,274.11L105.83,260.95L106,237.47L106.18,240.75L106.35,234.73L106.53,253.7L106.7,248.02L106.88,259.77L107.05,258.9L107.23,256.8L107.4,254.81L107.75,257.07L107.93,235.38L108.1,248.73L108.45,233.71L108.62,245.6L108.8,210.78L109.15,253.16L109.67,234.09L109.85,239.26L110.02,205.96L110.37,257.04L110.54,247.61L110.72,229.82L110.89,263.41L111.07,200.41L111.42,224.2L111.59,237.25L111.77,266.13L112.12,213.65L112.29,244.54L112.47,254.29L112.64,263.57L112.82,229.19L113.16,285.97L113.34,253.43L113.51,232.26L113.69,206.09L113.86,265.97L114.04,259.85L114.21,256.3L114.56,265.46L114.91,219.75L115.09,249.14L115.26,249.11L115.43,276.1L115.78,244.55L115.96,260.8L116.13,183.97L117.01,274.07L117.18,210.67L118.05,277.86L118.23,231.91L118.75,270.62L118.93,227.86L119.1,260.21L119.28,263.67L119.98,242.44L120.32,245.93L120.5,248.1L120.67,283.6L120.85,243.55L121.2,255.7L121.37,266.77L121.55,252.82L121.72,273.1L122.07,253.54L122.25,268.63L122.42,233.39L122.59,286.2L122.94,269.13L123.12,248.66L123.29,223.7L123.64,269.22L123.82,264.88L123.99,283.92L124.17,246.29L124.34,270.88L124.52,247.92L124.69,271.83L125.04,262.98L125.21,238.99L125.39,244.27L125.56,218.81L125.74,214.23L125.91,243.44L126.44,175.66L126.61,233.8L126.79,241L127.14,227.16L127.31,229.74L127.48,258.49L127.83,243.83L128.01,220.02L128.18,212.71L128.36,222.58L128.53,274.73L129.23,223.88L129.58,224.44L129.76,254.81L130.1,260.95L130.63,211.43L130.8,170.77L130.98,268.14L131.68,259.14L131.85,188.04L132.55,275.4L132.72,230.25L132.9,234.09L133.07,234.09L133.25,222.58L133.42,249.14L133.95,220.35L134.12,225.34L134.47,202.84L134.64,265.34L135.52,228.85L135.69,218.94L136.04,273.63L136.57,248.48L136.74,222.58L137.44,277.6L137.61,273.23L137.79,249.6L138.14,199.55L138.49,216.97L138.66,262.26L138.84,265.58L139.01,224.67L139.19,220.02L139.36,247.44L139.53,246.84L139.71,247.44L139.88,259.52L140.06,278.8L140.41,245.6L140.58,265.34L140.76,252.18L140.93,279.64L141.11,237.47L141.28,256.23L141.46,233.48L142.15,265.34L142.33,245.6L142.5,236.39L142.68,257.11L142.85,261.78L143.03,236.39L143.38,265.34L143.55,277.6L144.25,211.43L144.42,274.11L144.77,245.6L145.3,252.18L145.47,265.95L146.35,239.02L146.52,242.89L146.69,262.05L146.87,243.83L147.39,254.81L147.57,269.55L147.74,270.93L147.92,262.57L148.09,249.14L148.44,263.55L148.62,255.29L148.79,279.09L148.97,238.74L149.49,256.68L149.66,257.59L150.19,245.6L150.54,281.78L150.71,269L151.06,253.97L151.24,268.3L151.41,274.73L151.93,246.18L152.11,255.41L152.28,266.53L152.46,279.46L152.63,253.1L152.98,273.71L153.16,259.41L153.68,279.09L153.85,242.31L154.2,264.02L154.55,256.72L154.73,241.83L154.9,275.15L155.08,213.36L155.43,250.5L155.6,244.89L156.3,244.62L156.47,271.43L156.65,257.11L157.17,236.39L157.35,255.83L157.52,224.44L157.7,257.11L158.05,239.52L158.22,263.07L159.09,226.89L159.27,246.44L159.44,272.37L159.62,234.3L159.79,252.18L159.97,220.8L160.14,208.76L160.32,272.26L161.36,222.58L161.54,261.74L161.71,259.94L161.89,244.39L162.06,257.55L162.24,229.72L162.41,218.51L162.76,269.72L162.94,260.95L163.11,241.41L163.46,248.31L163.63,242.06L163.81,220.8L163.98,262.57L164.68,258.07L164.86,228.5L165.21,243.7L165.38,252.74L165.56,252.18L165.73,243.41L165.9,254.54L166.08,213.94L166.25,209.51L166.43,228.58L166.78,257.72L166.95,240.64L167.13,240.48L167.3,222.58L167.48,252.18L167.65,224.55L167.83,246.23L168.35,253.5L168.52,229.26L169.4,275.61L169.57,267.96L170.27,226.33L170.45,266.53L170.62,219.81L171.14,243.3L171.32,251.13L171.49,231.51L172.02,247.73L172.19,242.04L172.37,240.25L172.54,241.89L172.72,246.23L173.24,241.83L173.41,214.38L173.59,254.81L174.11,234.1L174.29,238.17L174.64,253.21L174.81,217.75L175.16,266.28L175.68,247.2L175.86,227.07L176.03,202.55L176.21,212.27L176.38,265.54L176.73,231.42L177.08,247.28L177.26,245.07L177.61,271.46L177.95,257.86L178.13,248.08L178.3,244.25L178.48,263.07L179,224.83L179.35,240.66L179.53,222.73L179.88,262.7L180.4,258.42L180.57,233.31L180.75,250.78L181.1,240.64L181.27,213.31L181.45,248.84L181.97,229.16L182.15,221.54L182.5,266.07L182.84,256.77L183.02,208.41L183.54,263.44L183.89,250.66L184.07,257.01L184.42,216.77L184.59,252.62L184.94,257.32L185.11,247.83L185.29,224.99L185.64,274.23L185.81,250.33L185.99,255.56L186.34,244.55L186.86,291.65L187.04,205.26L187.39,263.95L187.73,258.85L187.91,211.06L189.13,261.08L189.31,227.18L189.48,272.64L189.66,208.76L190,223.22L190.18,173.24L190.7,291.65L190.88,250.67L191.05,192.55L191.23,170.35L191.58,215.23L191.75,208.76L191.93,188.04L192.1,230.25L192.27,245.6L192.45,243.18L192.62,221.32L192.97,258.49L193.15,207.22L194.02,246.44L194.2,234.97L194.37,194.57L194.72,237.93L194.89,232.77L195.07,240.25L195.24,265.34L195.42,232.44L195.59,194.13L195.94,245.6L196.47,233.48L196.64,204.81L196.82,194.13L196.99,237.47L197.16,243.3L197.34,212.71L197.86,205.9L198.21,245.6L198.39,221.11L198.56,222.58L198.74,234.09L199.26,196.67L199.44,236.39L199.78,210.78L199.96,269.98L200.66,223.98L200.83,236.39L201.01,243.18L201.18,262.57L201.36,207.56L201.53,181.13L202.23,265.75L202.4,237.59L202.58,237.47L202.93,263.31L203.1,238.33L203.28,242.63L203.45,265.75L204.15,225.58L204.32,239.25L204.5,264.41L204.67,233.04L204.85,271.18L205.2,257.11L205.37,252.18L205.55,237.93L206.07,253.39L206.25,260.37L206.77,264.79L207.29,225.34L207.47,271.91L207.82,208.76L208.17,261.89L208.34,265.95L208.69,250.72L208.87,262.05L209.04,272.46L209.91,253.03L210.09,254.4L210.26,246.95L210.44,269.32L210.79,248.48L210.96,253.97L211.14,266.24L211.48,256.72L211.66,240.03L212.01,275.15L212.18,247.44L212.36,248.48L212.53,258.16L213.06,223.23L213.23,260.64L213.58,228.1L213.93,243.76L214.1,265.58L214.8,240.3L214.98,260.57L215.33,273.74L215.85,233.48L216.03,258.01L216.37,253.97L216.9,264.02L217.07,252.18L217.25,257.5L217.42,219.57L217.6,259.14L218.12,248.67L218.3,222.58L218.82,264.56L219.17,247.09L219.34,256.31L219.69,251.13L219.87,214.65L220.04,270.4L220.57,249.14L220.74,243.76L220.92,257.72L221.09,179.64L221.96,265.16L222.14,260.95L222.49,266.53L222.66,251.29L223.19,241.83L223.53,264.02L223.71,243.3L223.88,226.64L224.06,259.77L224.23,270.67L225.11,235.8L225.28,259.36L225.46,257.54L225.63,245.6L225.98,234.3L226.15,253.97L226.33,253.66L226.5,262.18L227.38,236.39L227.55,242.89L227.73,263.21L228.6,213.72L228.77,266.91L229.65,213.13L229.82,252.18L230.35,240.64L230.52,225.13L231.04,291.65L231.22,266.46L231.39,235.64L231.57,234.09L231.74,243.69L231.92,255.83L232.09,229.48L232.27,240.55L232.44,233.09L233.14,262.57L233.31,222.58L234.19,264.56L234.36,233.2L234.54,237.74L234.71,230.25L234.89,236.39L235.06,258.3L235.58,221.11L235.76,239.84L235.93,252.18L236.11,241.23L236.28,262.57L236.46,266.11L236.63,210.77L237.16,211.15L237.33,233.03L237.51,267.83L238.03,244.73L238.2,225.34L238.73,269.41L239.08,248.27L239.25,271.81L239.6,232.68L239.95,256.06L240.13,251.17L240.3,250.84L240.47,258.09L240.82,261.94L241,194.31L241.17,266.85L241.35,202.35L241.87,207.41L242.05,255.86L242.22,252.43L242.4,265.34L243.09,231.23L243.27,265.29L244.14,234.09L244.32,239.71L244.49,234.6L244.67,244.01L244.84,238.72L245.02,264.46L245.36,220.3L245.71,221.77L245.89,251.89L246.06,253.42L246.24,238.11L246.59,226.92L246.76,254.81L246.94,203.89L247.98,270.17L248.16,252.52L248.33,259.11L248.51,239L249.03,258.8L249.21,245.13L249.38,235L249.56,278.21L249.73,237.51L250.25,263.73L250.43,250.5L250.6,228.9L250.78,257.85L250.95,247.39L251.13,258.88L251.83,184.92L252,261.3L252.35,207.25L252.52,266.78L252.7,213.3L252.87,241.41L253.05,269.12L253.4,235.99L253.57,202.71L253.75,202.95L253.92,247.19L254.27,201.36L254.62,211.71L254.79,238.47L254.97,186.85L255.14,240.75L255.49,222.58L255.67,250.4L256.02,254.31L256.72,208.76L256.89,229.62L257.41,249.94L257.59,195.79L257.76,222.58L257.94,191.18L258.29,242.89L258.46,211.06L258.64,205.31L258.99,199.55L259.34,236.39L259.51,181.13L260.03,260.07L260.21,189.32L260.38,165.01L260.73,246.55L261.26,243.3L261.43,232.44L261.61,173.24L261.78,282.44L262.13,208.76L262.3,237.47L262.48,214.54L263,230.86L263.18,247.09L263.35,260.25L263.53,241.41L263.7,222.58L264.05,191.88L264.23,257.11L264.57,253.97L264.75,233.72L264.92,235.37L265.1,257.11L265.27,218.51L265.8,226.34L265.97,242.16L266.15,245.6L266.32,238.52L266.5,235.13L266.67,266.53L267.19,256.56L267.37,239.25L267.89,235.13L268.07,248.02L268.24,244.62L268.42,227.89L268.77,215.67L268.94,272.81L269.12,230.25L269.29,239.02L269.46,237.23L269.64,237.59L269.81,247.69L270.16,242.53L270.69,267.41L270.86,254.81L271.04,266.53L271.21,219.57L271.73,268.94L272.08,256.68L272.26,226.64L272.61,274.73L273.13,260.57L273.31,247.79L273.48,258.66L273.83,242.31L274,257.11L274.18,253.27L274.53,238.74L274.88,244.28L275.05,255.16L275.4,252.18L275.58,266.53L275.75,218.94L276.62,282.28L276.8,255.03L276.97,274.38L277.5,260.37L277.67,266.53L277.85,275.59L278.02,260.17L278.37,270.4L278.55,262.87L278.72,265.75L278.89,259.52L279.24,264.02L279.42,255.85L279.59,264.98L279.94,253.8L280.12,253.84L280.29,262.26L280.47,257.47L280.64,258.66L280.82,279.37L281.16,242.16L281.34,275.92L281.69,240.57L282.21,247.44L282.39,279.81L283.61,236.39L283.78,259.14L283.96,264.69L284.13,233.48L284.48,271.33L284.83,254.31L285.01,259.89L285.36,277.83L285.53,264.02L285.71,259.14L285.88,264.56L286.05,240.99L286.23,267.77L286.75,266.53L286.93,238.27L287.45,276.13L287.8,266.85L287.98,279.37L288.15,275.15L288.33,240.9L288.5,275.07L289.02,262.13L289.2,249.79L289.37,252.73L289.55,242.63L290.07,271.18L290.25,251.02L290.42,239.38L291.29,272.16L291.47,268.91L291.64,263.67L291.82,276.71L291.99,235.13L292.52,271.33L292.87,263.01L293.04,249.5L293.21,229.48L293.56,263.62L293.74,271.91L294.09,238.4L294.61,238.88L294.79,259.36L294.96,263.39L295.14,231.37L295.49,248.78L295.66,220.97L295.83,202.26L296.36,270.4L296.88,259.44L297.06,253.97L297.76,272.18L297.93,268.77L298.1,233.31L298.63,256.7L298.8,204.4L298.98,275.36L299.68,265.53L299.85,256.92L300.03,231.29L300.2,267.81L300.55,236.39L300.72,267.62L300.9,272.72L301.07,226.34L301.25,270.4L301.77,234.84L301.95,216.3L302.12,263.9L302.82,251.64L302.99,205.35L303.52,285.27L303.87,266.34L304.04,279.03L304.22,235.11L304.74,268.97L304.92,254.97L305.09,271.6L305.26,255.89L305.44,217.26L305.61,275.73L306.14,249.87L306.31,238.9L306.66,225.04L306.84,269.62L307.01,251.11L307.19,242.86L307.88,213.12L308.06,247.87L308.41,238.41L308.58,241.92L308.76,275.07L308.93,237.95L309.46,253.31L309.63,264.25L309.81,270.46L309.98,233.33L310.15,264.1L310.33,215.91L310.68,248.96L310.85,243.55L311.03,254.42L311.2,253.01L311.38,218.4L311.55,206.05L311.73,291.65L312.77,219.09L312.95,247L313.12,238.67L313.3,259.91L313.47,273.32L313.65,265.81L313.82,274.73L314,228.67L314.35,280.27L314.52,274.69L314.7,241.08L315.22,238.37L315.74,270L315.92,252.31L316.09,239.02L316.44,261.92L316.62,243.7L316.79,255.24L317.14,270.4L317.66,181.13L317.84,265.23L318.54,220.6L318.71,252.18L318.89,203.23L319.41,242.53L319.59,248.67L319.93,222.58L320.11,252.18L320.28,228.5L320.46,260.95L320.63,220.6L321.16,269.09L321.33,230.25L321.51,263.07L321.86,248.67L322.03,253.1L322.2,216.97L322.55,265.34L322.9,250.72L323.08,228.85L323.43,227.89L323.6,263.46L323.95,250.21L324.13,250.5L324.47,220.97L324.65,252.18L324.82,257.11L325,208.76L325.17,268.63L325.87,256L326.05,250.21L326.22,280.6L326.4,236.39L326.75,244.62L326.92,234.3L327.09,238.74L327.27,220.6L327.44,260.07L328.14,256.23L328.32,244.28L328.49,242.31L328.67,208.76L329.19,266.53L329.54,261.51L329.71,234.97L329.89,199.55L330.24,259.14L330.41,269.98L330.94,213.57L331.29,240.48L331.46,234.97L331.81,267.09L332.33,256.23L332.51,236.39L333.03,270.93L333.21,241.41L333.38,249.6L333.56,216.3L333.91,260.37L334.08,251.02L334.25,264.02L334.43,267.27L334.6,228.63L334.95,218.94L335.83,278.06L336,261.78L336.18,244.01L336.52,251.46L336.7,266.91L336.87,264.02L337.05,236.39L337.22,220.35L337.4,272.26L337.57,248.02L337.75,252.87L337.92,254.81L338.1,238.74L338.45,282.44L338.97,260.95L339.14,240.99L339.49,272.92L339.67,243.83L340.54,282.44L340.72,277.6L340.89,237.93L341.41,279.46L341.76,249.14L341.94,251.46L342.46,272.73L342.81,268.63L342.99,263.62L343.34,242.06L343.68,268.3L343.86,259.94L344.03,259.77L344.21,263.21L344.38,279.81L344.56,256.48L344.73,268.63L344.91,251.66L345.08,275.15L345.61,245.6L345.78,253.97L345.96,249.6L346.13,256.23L346.3,267.47L346.65,260.95L346.83,282.74L347,217.97L347.53,264.79L347.88,255.83L348.05,257.64L348.23,271.43L348.57,252.18L348.75,254.81L348.92,246.95L349.1,241.11L349.27,263.07L349.45,220.8L349.97,248.78L350.15,252.18L350.5,269.55L350.84,216.3L351.02,260.95L351.89,236.39L352.07,248.67L352.42,241.11L352.59,274.65L352.94,256L353.12,239.84L353.64,264.69L353.99,254.98L354.16,262.57L354.34,232.44L355.04,238.62L355.21,220.48L355.91,277.36L356.08,244.39L356.61,255.61L356.96,231L357.13,257.11L357.66,259.94L357.83,218.94L358.01,236.39L358.18,223.3L358.35,274.38L359.23,213.94L359.4,259.14L359.93,251.02L360.1,272.59L360.28,238.2L360.97,248.67L361.15,267.36L362.37,224L362.55,238.42L362.89,229.26L363.24,270.55L363.42,243.6L363.77,238.52L364.29,267.27L364.47,235.45L364.64,223.81L364.82,243.6L364.99,259.02L365.17,268.54L365.34,224.96L365.51,274.84L366.04,267.49L366.21,239.78L366.74,223.4L366.91,243.07L367.26,238.17L367.44,256.93L367.61,258.23L367.78,199.55L368.13,267.62L368.66,246.24L368.83,239.38L369.36,263.37L369.53,235.1L369.88,219.45L370.05,263.84L370.23,246L370.4,236.19L370.58,267.92L371.1,247.47L371.28,257.99L371.8,227.18L371.98,259.29L372.33,259.74L372.5,247.42L372.67,282.91L372.85,239.14L373.37,252.89L373.55,279.48L373.9,247.18L374.07,229.13L374.42,263.78L374.77,243.41L374.94,248.35L375.12,218.51L375.47,261.99L375.64,269.32L376.52,239.42L376.69,260.22L377.22,268.92L377.39,215.24L377.56,237.54L377.74,267.3L377.91,268.92L378.09,234.64L378.26,266.33L378.79,228.03L378.96,261.85L379.14,248.66L379.31,261.82L379.66,245.86L379.83,243.57L380.18,236.63L380.53,270.61L380.71,249.64L381.23,222.91L381.41,246.02L381.58,240.66L381.76,221.72L381.93,243.83L382.28,239.15L382.45,238.81L382.63,174.75L382.98,252.97L383.15,222.58L383.33,267.09L383.85,234.48L384.2,240.9L384.38,242.89L384.72,274.38L384.9,232.44L385.25,270.4L385.42,264.69L386.12,216.3L386.3,233.04L386.47,250.5L386.65,249.6L386.82,237.74L386.99,247.69L387.17,224.96L387.34,222.58L387.52,263.07L388.04,232.06L388.22,239.59L388.74,220.35L388.92,220.6L389.09,244.82L389.44,229.62L389.61,275.4L389.79,211.06L390.14,246.67L390.31,227.18L390.49,220.35L390.84,241.41L391.01,275.86L391.36,201.69L391.54,239.52L391.71,260.95L392.23,212.71L392.41,238.17L392.58,268.63L393.63,222.58L393.81,232.06L393.98,277.11L394.68,218.51L394.85,231L395.03,254.54L395.55,264.79L395.9,204.04L396.08,251.36L396.25,270.4L396.6,250.88L396.77,267.47L396.95,248.02L397.12,257.95L397.47,242.31L397.65,252.73L397.82,253.39L398,266.98L398.17,222.58L398.87,255.21L399.04,237.93L399.92,265.2L400.09,268.9L400.62,255.29L400.79,275.63L401.14,247.44L401.49,258.05L401.66,267.51L401.84,257.11L402.19,276.01L402.36,263.21L402.54,264.56L402.89,267.03L403.24,255.77L403.41,269.72L403.76,252.18L403.93,283.36L404.46,246.84L404.63,276.71L404.81,273.57L405.33,275.4L405.86,251.02L406.03,268.63L406.55,254.59L406.73,280.74L406.9,255.41L407.43,281.42L407.6,267.77L407.95,246.29L408.3,266.2L408.48,277.55L409,234.97L409.17,240.14L409.35,269.25L409.52,271.59L409.7,257.95L409.87,238.17L410.22,265.08L410.4,244.55L410.57,246.29L410.75,234.3L410.92,255.89L411.09,235.69L411.27,256L411.44,231.58L411.62,269.55L411.97,260.95L412.14,268.23L412.84,243.41L413.02,250.21L413.19,252.18L413.71,282.12L413.89,255.03L414.06,268.63L414.24,252.18L414.59,262.05L414.76,261.32L415.64,209.35L415.81,256.75L415.98,242.45L416.33,268.63L416.51,254.31L416.68,270.93L416.86,229.72L417.38,259.36L417.56,265.34L417.73,275.86L417.91,231.91L418.25,274.9L418.6,253.39L418.78,241.06L419.13,279.09L419.3,256L419.48,230.25L419.83,226.8L420.18,273.63L420.35,250.5L420.52,259.77L420.7,257.64L420.87,237.83L421.75,270.4L421.92,257.88L422.62,247.19L422.8,272.26L422.97,257.11L423.49,266.53L423.67,263.31L423.84,209.35L424.37,277.11L424.54,269.13L424.72,267.83L424.89,253.33L425.24,209.12L425.41,232.44L425.59,250.02L425.76,250.21L425.94,273.23L426.64,225.58L426.81,269.8L427.69,245.42L427.86,252.18L428.21,273.71L428.38,258.3L428.56,240.06L429.26,275.4L429.43,258.87L429.61,262.05L429.96,272.47L430.48,235.49L430.65,254.73L431,259.05L431.18,250.54L431.35,242.37L431.7,259.05L431.88,260.88L432.05,262.53L432.23,255.55L432.4,235.99L432.75,272.98L432.92,255.4L433.1,253.89L433.27,272.69L433.8,251.91L433.97,255.74L434.15,274.93L434.32,247.68L434.5,261.36L434.67,245.88L435.02,217.37L435.54,273.59L435.72,257.67L436.24,204.52L436.42,233.13L436.59,267.78L437.12,254.16L437.29,276.08L437.46,285.68L437.64,236.93L437.99,274.68L438.16,237.91L438.51,266.27L438.69,229.46L439.39,262.49L439.56,232.53L440.26,283.13L440.61,282.1L440.78,242.75L440.96,250.94L441.13,247.68L441.31,228.99L441.48,261.4L442.18,257.2L442.35,237.47L442.88,269.02L443.05,254.21L443.23,238.39L443.4,258.7L443.58,230.42L443.93,257.83L444.1,234.72L444.28,234.3L444.45,230.73L444.62,263.47L444.8,249.46L444.97,178.48L445.85,279.89L446.02,242.5L446.55,214.29L446.72,247.44L446.9,259.41L447.07,272.81L447.24,253.1L447.42,236.39L447.59,263.31L447.77,230.7L448.29,256.23L448.47,221.22L448.64,226.21L448.82,266.07L449.51,240.25L449.69,284.38L450.39,218.94L450.56,264.02L450.74,261.78L451.09,234.97L451.26,270.4L451.44,268.63L451.61,264.02L451.96,213.45L452.31,231.91L452.48,255.61L452.66,225.58L453.01,273.23L453.18,254.81L453.36,269.55L454.23,222.58L454.4,268.63L454.75,190.34L455.1,263.46L455.28,250.21L455.45,251.46L455.63,244.01L455.98,245.6L456.15,279.46L456.67,247.44L457.02,262.87L457.2,262.57L457.55,236.39L457.9,252.18L458.07,257.11L458.25,258.76L458.42,248.67L458.95,272.92L459.12,261.51L459.29,251.46L459.47,229.09L459.82,266.98L459.99,238.04L460.17,268.63L460.52,280.81L460.69,239.84L460.87,276.71L461.04,274.9L461.22,260.45L461.39,281.02L461.74,246.54L461.91,231.58L462.44,273.82L462.79,266.24L462.96,265.34L463.14,268.63L463.31,245.6L464.01,279.09L464.18,275.95L464.36,247.69L464.88,274.56L465.06,236.39L465.58,263.55L465.93,260.95L466.11,259.89L466.28,258.25L466.45,248.88L466.8,261.78L466.98,252.18L467.15,244.39L468.03,273.47L468.2,266.53L468.55,255.21L468.72,272.59L468.9,258.7L469.25,277.11L469.6,261.85L469.77,265.02L469.95,262.05L470.12,276.13L470.47,229.72L470.82,269.32L470.99,263.17L471.34,272.37L471.52,243.41L471.69,268.23L472.22,251.7L472.39,253.66L472.57,266.53L472.74,279.64L472.92,233.99L473.27,272.35L473.79,269.32L473.96,253.27L474.14,233.28L474.31,271.03L474.66,252.68L474.84,258.76L475.01,270.12L475.36,258.66L475.54,252.87L475.71,269.42L476.23,256L476.41,252.18L476.58,258.3L476.76,243.83L476.93,279.98L477.46,283.76L477.81,216.97L477.98,253.1L478.16,250.64L478.5,263.29L478.85,257.11L479.03,244.01L479.2,242.06L479.38,258.66L479.55,258.05L479.73,265.16L480.08,265.86L480.25,224.67L480.43,259.77L480.6,271.91L481.3,237.07L481.47,240.75L481.65,262.57L481.82,272.92L482,249.79L482.17,205.05L482.35,270.8L482.87,263.07L483.04,244.73L483.74,262.26L483.92,213.94L484.79,271.56L484.97,240.48L485.32,224.96L485.49,281.22L485.84,270.4L486.01,262.26L486.19,257.95L486.36,234.97L486.54,284.91L487.06,260.95L487.24,245.6L487.59,218.94L487.76,247.69L487.93,268.3L488.11,250.77L488.63,251.46L488.81,260.84L488.98,222.58L489.51,248.48L489.68,268.63L489.86,239.89L490.38,253.97L490.55,264.41L491.25,224.44L491.43,244.05L491.6,262.35L491.95,263.62L492.13,226.34L492.48,237.09L492.65,242.53L492.82,262.67L493,237.62L493.35,261.42L493.52,247.69L493.7,234.48L493.87,269.84L494.05,242.99L494.22,253.3L494.57,268.88L494.92,227.14L495.09,263.31L495.27,271.18L495.44,252.27L495.62,258.82L495.79,254.12L495.97,268.87L496.14,241.9L496.49,266.8L496.67,252.71L496.84,246.17L497.02,262.3L497.37,250.15L497.54,266.03L497.71,273.8L497.89,254.1L498.06,268.63L498.24,235.81L498.76,231.39L499.11,269.03L499.29,248.48L499.64,252.78L499.81,244.73L500.51,274.33L500.68,267.13L500.86,245.06L501.56,277.17L501.73,261.88L501.91,252.92L502.08,238.27L502.43,263.71L502.6,273.56L503.13,281.28L503.3,235.59L503.48,266.28L503.65,285.16L504,262.1L504.18,276.55L504.35,257.36L504.7,260.12L504.87,239.51L505.05,270.4L505.22,278.95L505.57,260.25L505.75,263.38L505.92,264.99L506.1,233.13L506.62,278.24L506.97,272.1L507.14,256.64L507.32,266.03L507.67,250.12L507.84,245.46L508.02,264.55L508.37,239.42L508.54,250.59L508.72,258.32L508.89,284.53L509.07,240.73L509.41,274.01L509.59,248.31L509.76,237.74L510.11,262.05L510.29,203.94L510.81,271.43L511.16,252.97L511.34,241.83L511.51,241.41L511.69,249.14L512.03,265.75L512.21,214.9L512.38,243.83L512.56,246.54L512.73,261.62L513.08,255.29L513.26,204.4L513.78,274.11L514.13,254.31L514.3,279.64L514.48,240.9L515,244.01L515.18,276.01L515.35,245.6L516.05,248.67L516.23,265.34L516.4,265.08L516.58,253.54L516.75,276.3L516.92,192.97L517.8,272.81L517.97,207.77L518.67,269.37L518.85,248.02L519.02,260.95L519.19,230.25L519.72,240.48L519.89,277.11L520.07,278.7L520.24,245.6L520.42,257.82L520.59,205.9L521.64,269.98L521.81,222.58L522.34,274.9L522.69,257.11L522.86,233.48L523.56,269.25L523.74,244.62L523.91,233.72L524.08,255.61L524.26,249.14L524.43,249.14L524.78,259.41L524.96,228.63L525.13,230.25L525.31,252.18L525.48,262.87L525.66,230.86L525.83,236.39L526.18,214.71L526.35,231L526.53,246.84L527.4,185.38L527.58,197.59L527.93,170.77L528.45,249.88L528.63,222.58L528.8,231.91L528.97,215.3L529.32,219.44L529.5,222.58L530.2,191.18L530.37,206.37L530.55,204.4L530.72,236.39L531.77,163.81L531.94,180.24L532.12,166.87L532.99,224.11L533.17,181.13L533.51,233.66L534.04,224.26L534.21,198.06L534.39,196.01L534.56,210.39L534.91,196.53L535.09,240.64L535.44,192.18L535.79,206.63L535.96,233.2L536.13,182.17L536.66,228.33L536.83,207.83L537.01,243.41L537.53,237.3L537.71,217.52L538.06,248.02L538.4,216.72L538.58,216.82L538.93,199.55L539.1,242.53L539.45,239.02L539.63,221.22L539.98,246.35L540.15,217.26L540.5,250.41L541.2,248.48L541.37,230.25L541.9,252.87L542.07,245.05L542.25,234.45L542.42,212.71L542.77,252.18L542.95,242.31L543.47,201.43L543.64,245.6L543.82,249.94L544.69,232.06L544.87,245.6L545.22,254.31L545.56,216.3L545.74,229.09L545.91,255.16L546.61,257.72L546.96,220.8L547.14,228.5L547.31,240.09L547.66,222.58L547.84,233.55L548.01,232.77L548.18,232.86L548.36,253.97L548.53,211.83L549.06,217.26L549.23,251.02L549.58,226.98L549.76,275.07L549.93,223.98L550.45,233.48L550.63,243.6L550.8,236.39L550.98,182.42L551.85,241.41L552.03,240.75L552.2,250.99L552.38,228.85L552.55,204.4L552.72,201.22L552.9,226.98L553.25,270.8L553.42,228.85L553.6,240.99L553.77,194.95L554.65,250.21L554.82,249.14L555.34,233.24L555.69,233.28L555.87,244.01L556.04,274.94L556.57,240.99L556.74,219.52L557.27,211.43L557.79,255.16L557.96,244.5L558.14,239.84L558.31,259.37L558.49,215.74L559.19,215.84L559.36,223.43L559.71,221.02L560.23,264.21L560.41,239.63L560.58,259.46L560.93,244.37L561.11,230.79L561.28,253.19L561.81,244.48L561.98,245.28L562.5,264.82L562.68,240.6L562.85,256.32L563.2,238.24L563.38,235.63L563.55,218.22L563.73,247.63L564.08,228.3L564.25,253.81L564.43,231.91L564.95,238.12L565.12,256.56L565.3,264.35L565.47,256.29L565.65,242.11L566.35,260.63L566.52,259.19L566.7,252.42L566.87,268.73L567.05,264.59L567.22,224.06L567.92,275.4L568.09,236.78L568.44,234.25L568.62,253.01L568.79,227L569.14,239.42L569.32,246.03L569.49,223.75L569.84,253.89L570.01,233.98L570.19,235.91L571.06,260.25L571.24,253.94L571.59,256.06L571.93,236.59L572.11,253.68L572.46,222.58L572.81,235.45L572.98,253.87L573.16,212.06L573.68,219.05L573.86,240.54L574.38,231.09L574.55,235.59L574.73,259.89L574.9,264.02L575.25,254.81L575.43,243.76L575.6,271.91L575.78,229.85L576.13,251.61L576.3,244.48L576.48,270.06L576.82,246.35L577,234.76L577.87,267.41L578.05,246.29L578.22,229.72L578.4,259.62L578.57,245.6L578.75,266.53L579.62,233.25L579.79,264.47L580.32,236.39L580.49,259.41L580.67,251.36L581.02,272.26L581.37,222.58L581.54,242.53L581.71,264.69L581.89,211.06L582.24,283.76L582.41,254.81L582.59,238.33L583.29,264.02L583.46,262.78L583.64,259.62L583.98,264.69L584.16,202.04L584.86,258.3L585.03,239.38L585.21,260.95L585.38,265.75L585.73,254.54L585.91,256.56L586.08,258.3L586.26,252.87L586.43,252.18L586.6,225.13L586.78,269.43L586.95,239.52L587.13,265.16L587.83,240.48L588,256.23L588.18,284.91L588.35,238.17L588.7,250.72L588.87,258.87L589.05,215.67L589.57,230.77L589.75,240.64L589.92,206.37L590.45,244.62L590.62,249.14L590.8,252.18L590.97,232.06L591.14,260.45L591.49,204.67L591.67,220.97L592.19,279.64L592.37,236.39L592.54,214.9L592.89,266.07L593.24,258.49L593.42,235.26L594.11,206.63L594.29,214.29L594.46,235.37L594.64,277.83L595.16,253.54L595.34,249.79L595.51,244.01L595.69,262.57L596.03,244.73L596.21,260.37L596.38,275.07L596.73,272.26L596.91,251.22L597.08,271.91L597.43,240.14L597.61,258.76L597.78,261.62L597.96,248.84L598.31,264.02L598.48,258.16L598.65,260.95L598.83,240.9L599,273.82L599.35,260.25L599.53,255.83L599.7,255.41L599.88,257.72L600.05,244.28L600.4,246.54L600.58,264.02L600.92,229.72L601.1,265.34L601.27,241.41L601.8,260.95L601.97,249.14L602.32,267.09L602.5,252.18L602.67,212.71L603.19,273.63L603.54,257.11L603.72,255.29L603.89,221.11L604.24,268.63L604.42,239.92L604.59,241.41L604.77,270.8L604.94,239.02L605.47,264.56L605.64,257.11L605.81,254.59L605.99,270.4L606.34,243.83L606.86,251.66L607.04,264.41L607.21,251.02L607.39,275.4L607.74,264.91L607.91,255.08L608.26,234.09L608.43,282.44L608.61,254.81L608.78,265.95L609.31,270.4L609.48,220.8L609.66,253.39L609.83,271.91L610.18,252.18L610.35,252.18L610.53,246.54L610.88,224.11L611.05,258.49L611.23,239.02L611.4,258.49L611.75,269L612.1,261.62L612.28,246.67L612.45,234.68L612.63,240.22L612.8,265.51L613.5,247.89L613.67,276.24L614.2,232.52L614.72,246.67L614.9,232.79L615.07,240.27L615.24,224.77L615.59,232.96L615.77,229.6L616.12,207.64L616.29,250.29L616.47,220.08L616.82,264.16L617.17,245.6L617.34,240.25L617.52,235.13L617.69,251.22L617.86,253.97L618.04,255.16L618.21,219.88L618.91,266.91L619.09,260.95L619.26,243.41L619.79,276.71L620.13,267.83L620.31,247.44L620.48,282.44L621.01,243.6L621.18,239.71L621.36,260.84L621.53,236.15L621.88,255.04L622.06,241.85L622.75,272.22L622.93,265.71L623.1,250.86L623.28,247.05L623.63,254.16L623.8,270.72L623.98,270.73L624.15,248.17L624.33,246.72L624.5,257.64L625.02,260.69L625.2,240.3L625.37,260.67L625.55,267.43L625.72,238.35L626.07,269.58L626.42,254.28L626.6,250.15L626.95,274.63L627.12,237.02L627.29,223.34L628.34,262.57L628.52,267.17L628.87,278.22L629.56,225.45L629.74,242.51L629.91,259L630.09,229.46L630.26,261.85L630.61,239.71L630.79,255.34L631.14,280.06L631.31,245.6L631.49,257.3L631.66,250.31L631.84,237.87L632.01,254.59L632.18,246.82L632.36,258.01L633.06,231.21L633.23,245.76L633.41,243.47L633.58,244.52L633.76,228.76L634.11,242.8L634.45,213.84L634.63,255.64L634.8,230.78L635.33,250.52L635.5,255.14L636.55,218.67L636.73,235.64L636.9,240.29L637.07,218.05L637.25,244.22L637.6,236.39L637.77,192.47L638.65,266.2L638.82,252.18L639.17,207.22L639.34,208.76L639.52,266.53L639.69,268.63L639.87,228.5L640.04,237.74L640.22,193.41L640.57,264.02L640.92,238.74L641.09,226.98L641.44,248.48L641.96,212.71L642.14,233.92L642.31,200.87L642.66,241.92L642.84,234.09L643.01,218.51L643.71,251.46L643.89,218.94L644.58,261.43L644.76,226.34L644.93,223.71L645.11,255.83L645.46,263.55L645.63,199.55L645.81,232.66L645.98,251.13L646.5,271.63L646.85,260.95L647.03,253.1L647.38,280.45L647.55,229.48L647.73,283.15L648.25,219.57L648.43,252.18L648.6,268.35L649.12,248.02L649.3,262.73L650,245.08L650.17,248.02L650.35,263.21L650.7,249.6L650.87,263.39L651.05,278.95L651.39,230.7L651.92,241.92L652.09,265.86L652.27,271.33L652.44,253.03L652.79,239.59L652.97,263.07L653.14,253.54L653.32,267.09L653.49,263.17L653.66,275.26L653.84,244.01L654.01,243.6L654.19,251.22L654.71,242.72L654.89,267.47L655.06,261.69L655.24,255.03L655.41,273.63L655.76,260.95L655.94,231.43L656.63,266.53L656.81,254.4L656.98,247.19L657.33,245.6L657.51,269.55L658.03,268.86L658.21,257.11L658.73,267.17L658.9,262.82L659.08,240.9L659.95,263.74L660.13,250.58L660.48,273.57L661,265.75L661.17,254.31L662.22,275.59L662.4,253.97L662.75,248.48L663.27,264.29L663.44,251.29L663.62,267.36L663.79,222.58L663.97,240.75L664.14,228.33L664.49,262.7L665.02,246.29L665.19,252.97L665.37,265.47L665.71,249.55L665.89,250.5L666.06,229.48L666.41,263.39L666.94,256.72L667.11,234.37L667.99,269.13L668.16,255.21L668.33,259.66L668.51,237.23L669.03,258.76L669.21,226.14L670.26,271.74L670.43,264.62L670.6,263.07L670.78,272.69L671.13,243.6L671.65,250.45L671.83,248.48L672,240.18L672.18,261.37L672.35,259.89L673.4,232.44L673.57,241.83L673.75,228.4L673.92,269.16L674.27,242.45L674.45,258.49L674.62,262.05L674.8,241.41L674.97,238.25L675.15,254.69L675.32,253.27L675.49,255.29L675.67,258.49L675.84,271.18L676.02,250.02L676.37,260.05L676.54,242.21L677.07,275.95L677.24,263.07L677.42,259.66L677.76,265.88L677.94,261.62L678.11,254.81L678.46,270.67L678.64,251.29L678.81,271.68L679.16,240.03L679.34,270.4L679.51,246.84L679.69,274.56L679.86,210.39L680.21,260.17L680.38,227.23L681.08,260.95L681.26,236.18L682.13,264.91L682.31,228.4L683.18,279.46L683.35,240.14L683.7,265.75L683.88,257.93L684.05,251.02L684.4,230.77L684.58,254.59L684.75,263.9L685.27,240.48L685.45,262.35L685.62,214.9L685.97,262.96L686.15,236.61L686.32,256.78L686.5,256.42L686.67,244.89L687.2,254.73L687.37,240.45L687.72,252.81L688.07,240.35L688.24,234.76L689.12,260.39L689.29,235.48L689.64,236.91L689.81,248.7L689.99,250.56L690.16,246.88L690.34,249.14L690.51,241.92L691.56,267.62L691.74,246.35L692.43,261.7L692.61,249.57L692.78,216.87L692.96,251.5L693.31,242.15L693.48,242.53L693.66,235.24L694.01,235.59L694.18,266.81L694.36,227.24L694.88,259.14L695.05,249.74L695.23,247.55L695.4,257.61L695.75,244.79L695.93,259.67L696.1,266.53L696.28,211.78L696.63,267.92L696.8,252L696.97,241.41L697.15,265.86L697.67,236.09L697.85,253.75L698.2,239.21L698.55,254.6L698.72,261.16L699.07,263.83L699.42,235.93L699.59,271.24L700.29,213.41L700.47,213.72L700.64,251.93L700.99,266.85L701.34,260.2L701.52,242.31L702.21,230.25L702.39,265.75L702.56,225.58L703.09,267.62L703.26,253.27L703.96,208.76L704.31,221.32L704.48,248.02L704.66,253.18L704.83,234.3L705.18,260.37L705.53,254.54L705.71,223.88L706.58,259.14L706.75,246.54L706.93,235.77L707.1,240.25L707.28,260.07L707.63,245.6L707.8,248.31L707.98,264.02L708.85,231.21L709.02,230.25L709.55,265.75L709.72,258.36L709.9,248.59L710.07,244.16L710.25,257.11L710.42,271.56L711.29,232.44L711.47,237.59L711.64,271.91L712.34,229.39L712.52,253.97L712.69,271.03L712.87,238.17L713.57,239.19L713.74,244.82L714.09,266.3L714.61,264.02L714.79,259.99L714.96,276.71L715.14,246.23L715.31,256.48L715.49,248.67L715.66,271.18L716.01,228.4L716.36,268.06L716.53,260.95L716.88,256.33L717.06,279.94L717.41,267.03L717.58,258.39L717.76,275.97L718.28,267.51L718.46,248.89L718.8,257.54L718.98,266.53L719.15,269.14L719.33,268.63L719.5,253.44L719.68,256.44L719.85,248.92L720.03,246.49L720.38,279.37L720.73,262.31L720.9,257.11L721.42,248.99L721.6,270.56L721.77,252.8L721.95,278.28L722.12,244.11L722.3,247.69L722.47,229.89L723,269.84L723.34,263.51L723.52,265.34L723.69,246.54L724.22,261.66L724.39,262.31L724.57,246.07L724.92,275.71L725.09,260.07L725.27,270.6L725.44,274.83L725.62,262.57L725.79,250.62L726.31,256.48L726.49,247.16L727.19,246.75L727.36,265.34L727.54,242.69L727.71,263.46L728.23,243.23L728.41,253.14L728.58,245L728.76,252.64L728.93,266.01L729.11,261.56L729.28,224.04L729.46,258.82L729.81,217.52L729.98,244.2L730.16,234.84L730.33,243.01L730.5,228.5L730.85,236.39L731.03,239.02L731.38,264.02L731.73,262.26L731.9,224.85L732.25,270.67L732.6,262.73L732.78,241.98L733.12,261.37L733.3,245.23L733.47,229.79L734,253.84L734.17,250.5L734.35,240.28L734.52,240.75L734.7,252.64L734.87,255.21L735.05,244.68L735.22,254.28L735.39,238.87L735.57,252.18L735.74,231.43L735.92,227.63L736.09,247.44L736.27,268.21L736.79,265.86L736.97,258.66L737.32,228.18L737.49,259.14L737.67,246.07L737.84,280.81L738.54,232.06L738.89,237.03L739.06,268.94L739.94,237.78L740.11,253.27L740.81,224.26L740.98,262.18L741.86,244.16L742.03,257.54L742.21,242.53L742.73,252.18L742.9,249.6L743.08,234.16L743.43,254.81L743.6,256.78L743.78,262.73L743.95,239.64L744.3,235.64L744.48,253.39L744.65,247.58L744.83,262.18L745,265.2L745.7,232.77L745.87,234.97L746.05,243.11L746.4,256.38L746.57,260.74L746.75,223.05L747.27,231.73L747.44,253.1L747.62,242.79L747.79,267.38L748.32,243.11L748.49,251.06L748.67,244.95L748.84,262.18L749.02,266.53L749.54,271.48L749.71,236.66L750.06,237.23L750.24,240.1L750.41,240.75L750.59,247.82L750.76,262.73L750.94,240.43L751.11,259.38L751.29,235.69L751.46,235.98L751.64,238.17L751.99,259.14L752.16,240.03L752.33,272.65L752.68,260.52L752.86,223.32L753.21,260.72L753.56,256.72L753.73,238.04L753.91,247.85L754.08,210.21L754.95,265.22L755.13,260.01L755.48,209.58L755.83,239.11L756,237.07L757.05,275.53L757.22,247.9L757.4,225.67L757.75,249.14L757.92,229.42L758.1,243.04L758.27,251.22L758.45,219.18L759.32,270.23L759.49,229.42L759.84,259.14L760.02,216.87L760.89,273.57L761.07,269.37L761.59,283.87L761.94,239.64L762.11,262.57L762.29,262.78L762.46,246.14L762.64,208.76L763.16,251.74L763.34,260.17L764.04,229.62L764.21,253.27L764.56,260.95L765.08,201.55L765.26,244.01L765.43,236.39L765.61,261.89L765.78,267.41L766.48,207.22L766.65,246.29L767,267.97L767.7,220.02L767.88,249.14L768.23,256.38L768.4,232.86L769.1,195.79L769.27,230.77L769.45,246.95L769.8,239.84L769.97,213.57L770.15,207.22L770.32,229.62L770.5,243.6L771.02,228.85L771.2,227.89L771.37,223.98L771.54,224.8L771.72,253.54L772.24,278.49L772.42,181.13L772.59,212.71L772.77,215.23L772.94,215.23L773.12,221.22L773.81,241.83L773.99,226.98L774.16,237.47L774.86,236.39L775.04,238.33L775.39,244.89L775.56,220.48L776.26,272.26L776.43,257.95L776.61,227.06L776.78,229.85L776.96,256.31L777.66,243.3L777.83,250.58L778.01,258.36L778.7,220.35L778.88,260.52L779.05,261.29L779.23,257.5L779.75,235.37L779.93,262.94L780.1,227.89L780.45,271.91L780.8,232.44L780.97,249.6L781.32,253.88L781.5,250.5L781.67,270.4L782.2,223.39L782.55,234.48L782.72,273.82L783.42,244.01L783.59,262.18L783.77,254.09L784.29,265.34L784.47,253.27L784.64,241.06L784.99,272.15L785.17,234.24L785.34,272.92L785.86,253.8L786.04,249.14L786.21,256.68L786.91,255.83L787.09,240.59L787.26,272.81L787.79,250.55L787.96,261.72L788.48,245L788.83,245.14L789.01,258.16L789.18,261.94L789.36,252.18L789.71,260.52L789.88,249.36L790.23,244.55L790.41,274.01L790.58,241.98L790.75,232.71L790.93,270.93L791.63,242.89L792.15,247.6L792.33,249.6L792.68,266.78L792.85,253.27L793.02,255.21L793.2,273.47L793.37,253.97L794.07,255.61L794.25,260.07L794.42,237.83L794.95,258.61L795.12,249.36L795.47,261.32L795.64,235.2L795.82,225.49L795.99,261.62L796.34,244.73L796.52,259.66L796.69,261.78L796.87,257.59L797.04,247.09L797.22,244.01L797.39,265.47L798.09,229.15L798.26,261.78L798.44,252.18L798.61,268.9L798.96,256.48L799.14,264.02L799.49,229.02L799.84,239.3L800.01,261.69L800.53,234.76L800.88,238.04L801.06,258.25L801.76,215.8L801.93,259.77L802.46,244.82L802.63,240.55L802.8,227.18L803.15,245.6L803.33,240.34L803.5,251.29L803.68,237.07L804.03,258.49L804.2,253.27L804.38,260.95L804.9,239.19L805.25,248.37L805.42,258.05L805.6,266.98L805.77,248.67L806.12,258.49L806.3,249.55L806.47,256.75L806.65,242.16L806.82,239.02L807.17,233.48L807.69,265.08L807.87,252.18L808.57,237.12L808.74,257.88L809.09,238.33L809.44,253.66L809.62,249.36L809.96,245.6L810.14,262.18L810.31,232.44L810.84,257.11L811.19,256.23L811.36,257.11L811.89,246.18L812.06,258.76L812.93,233.48L813.11,241.83L813.63,225.34L813.81,267.09L813.98,246.54L814.16,220.02L814.51,262.39L814.68,256.68L815.2,221.11L815.38,228.85L815.55,247.24L815.73,269.67L816.08,234.09L816.25,262.78L816.43,245.6L816.6,255.83L816.95,253.66L817.12,235.06L817.65,223.71L818,251.7L818.17,230.25L818.35,257.82L818.7,229.92L818.87,251.46L819.05,204.67L819.57,272.59L819.92,257.11L820.09,232.06L820.62,278.28L820.79,252.18L820.97,237.47L821.49,251.54L821.67,210.02L821.84,256.56L822.01,260.95L822.36,252.18L822.54,234.97L822.89,267.09L823.24,230.25L823.41,219.29L823.59,283.97L824.28,268.63L824.46,259.14L824.63,260.07L824.81,249.79L825.33,263.07L825.51,247.09L825.86,230.25L826.03,281.42L826.38,268.63L826.56,254.31L826.73,282.74L827.25,257.11L827.43,230.25L828.3,278.49L828.48,250.21L828.83,291.65L829,15.35" style="vector-effect: none; fill: none; stroke: rgb(214, 39, 40); stroke-opacity: 1; stroke-width: 1px; opacity: 1;"/></g><g class="points"/><g class="text"/></g><g class="trace scatter traceaca16d" style="stroke-miterlimit: 2; opacity: 1;"><g class="fills"/><g class="errorbars"/><g class="lines"><path class="js-line" d="M1.05,240.41L1.22,242.02L1.4,240.5L1.57,238.04L1.75,237.53L1.92,240.3L2.1,240.8L2.27,239.1L2.44,237.34L2.97,237.25L3.14,238.69L3.49,238.96L3.67,237.43L4.89,240.55L5.06,240.9L5.59,241.97L5.76,241.32L5.94,239.07L6.11,238.65L6.46,239.17L6.64,240.23L7.51,242.05L7.68,242.48L8.73,240.7L8.91,242.23L9.08,241.95L9.26,243.54L9.43,244.03L9.78,242.97L9.95,243L11,240.93L11.18,243.11L14.32,251.46L14.49,249.88L14.67,249.27L14.84,250.36L15.02,251.12L15.19,250.87L15.37,251.72L15.54,252.91L15.72,252.71L15.89,253.44L16.07,254.16L16.59,256.39L16.94,255.96L17.11,256.21L17.81,256.18L17.99,255.46L18.16,254.73L18.51,255.73L18.69,256.37L19.21,255.43L19.38,256.21L19.56,256.28L20.78,258.98L20.96,259.45L21.13,258.87L21.65,259.31L21.83,259.7L22,259.26L22.53,259.49L22.7,259.59L23.05,258.37L23.4,259.41L23.58,260.15L23.75,259.83L24.1,260.55L24.27,260.3L24.45,260.69L24.97,260.52L25.15,259.9L26.72,257.14L26.89,256.31L27.24,257.76L27.59,257.45L27.77,256.84L28.12,256.98L28.29,258.18L28.82,256.02L28.99,255.27L29.51,254.29L29.86,254.37L30.04,254.43L30.56,252.58L31.09,252.77L31.26,252.61L31.43,252.53L31.61,253.21L31.78,253.5L32.13,254.29L32.31,254.02L32.48,253.34L33.01,252.68L33.18,253.3L33.36,253.71L33.7,253.59L33.88,254.21L34.05,254.51L34.23,254.38L34.4,255.02L34.58,255.32L35.1,255.11L35.28,253.53L35.8,255.55L36.15,254.75L36.32,254.39L36.67,255.41L36.85,254.32L37.02,253.67L37.2,254.37L37.55,253.78L37.72,252.36L39.12,250.41L39.29,250.98L39.47,252.37L40.34,251.52L40.52,251.86L40.69,252.65L40.86,252.14L41.21,252.3L41.39,253.35L41.74,253.61L41.91,253.15L42.09,254.95L42.26,255.43L42.44,254.18L42.61,254.13L42.79,254.16L42.96,256.24L43.14,257.52L43.66,256.09L43.83,255.83L44.01,255.45L44.18,256.42L44.36,257.11L44.88,255.37L45.41,255.68L45.58,255.96L45.75,256.76L45.93,255.06L46.1,255.57L46.28,255.61L46.45,255.87L46.63,255.11L46.8,254.72L48.37,248.85L48.55,247.83L49.77,245.89L49.95,246.35L50.12,246.66L50.3,246.42L50.47,245.41L50.64,244.57L50.82,246.03L50.99,245.6L51.17,247.16L52.22,244.81L52.39,244.61L52.57,243.75L52.74,246.13L52.91,248.12L53.44,247.11L53.79,247.66L53.96,248.27L55.01,247.81L55.19,246.96L55.36,247.1L55.53,246.38L55.71,245.83L55.88,246.27L56.06,243.85L56.41,243.5L56.76,244.78L56.93,244.45L57.11,244.3L57.46,244.13L57.8,245.86L57.98,245.17L58.15,244.67L59.03,247.51L59.38,246.6L59.55,246.73L59.9,243.69L60.42,244.5L60.6,245.3L61.3,247.6L61.47,246.32L61.82,246.52L62,245.57L64.79,233.1L64.96,234.52L65.14,235.77L65.66,234.78L65.84,232.33L66.54,229.24L66.89,230.43L67.06,230.33L67.24,229.25L67.41,230.28L67.58,232.44L68.63,238.35L68.81,236.72L70.03,240.42L70.2,239.57L70.38,240.11L70.73,239.15L70.9,238.96L71.78,242.24L71.95,240.11L72.12,239.99L72.3,240.29L72.47,241.92L72.82,242.38L73,240.84L73.17,238.64L73.7,237.98L73.87,236.77L74.92,239.18L75.09,239.1L75.27,238.17L77.36,246.88L77.54,246.7L77.71,247.07L78.94,252.5L79.11,251.93L79.29,252.09L80.86,254.54L81.03,253.93L81.38,251.93L81.9,252.75L82.08,253.56L82.78,254.8L82.95,254.59L83.13,253.47L83.3,253.92L83.48,253.35L83.65,252.56L84.52,254.22L84.87,253.76L85.05,253.5L85.92,254.1L86.1,254.31L86.62,255.76L87.14,255.56L87.32,255.99L88.19,256.06L88.37,256.9L88.89,257.77L89.06,256.6L90.11,256.9L90.29,256.17L91.33,254.82L91.51,254.35L92.38,252.94L92.56,252.43L93.26,251.88L93.43,252.05L94.13,251.97L94.3,253.56L95.35,252.63L95.53,253.54L96.4,254.6L96.57,254.42L98.15,256.18L98.32,255.83L98.5,256.03L98.67,255.19L98.84,253.94L101.64,245.66L101.81,245.87L102.34,245.13L102.51,243.46L102.69,243.49L102.86,244.32L103.38,244.61L103.56,243.29L103.91,241.47L104.26,243.27L104.43,243.06L104.61,242.94L104.78,243.78L104.96,243.25L105.13,243.36L105.31,244.93L107.23,248.73L107.4,248.76L107.75,250.97L108.1,249.33L108.27,249L108.8,247.86L108.97,247.99L109.15,249.15L110.2,244.93L110.37,245.16L112.47,237.59L112.64,237.88L112.99,236.55L113.16,238.24L113.34,238.39L113.69,237.14L113.86,237.82L114.04,239.46L115.96,244.83L116.13,242.18L117.36,247.73L117.53,247.65L117.88,247.33L118.05,248.95L118.58,247.61L118.75,248.89L118.93,249.61L119.45,249.6L119.63,250.11L119.8,249.88L119.98,250.24L120.15,251.11L121.2,250.32L121.37,253.08L121.72,253.52L121.9,253.82L122.25,253.57L122.42,254.33L122.94,257.57L123.12,257.14L123.29,255.34L123.82,256.2L123.99,256.64L125.04,257.8L125.21,257.69L125.39,257.64L125.56,256.74L128.36,238.99L128.53,240.69L128.71,241.13L130.8,230.77L130.98,232.57L131.15,232.25L131.68,237.36L132.2,235.96L132.37,236.27L132.55,237.79L133.07,235.89L133.25,235.97L133.42,237.19L133.77,235.47L133.95,234.57L135.34,231.7L135.52,231.91L135.69,231.79L135.87,232.85L136.39,236.47L136.74,235.85L136.92,236.32L137.61,240.26L137.79,239.4L137.96,238.89L138.14,237.74L138.66,238.28L138.84,239.77L139.36,240.49L139.53,241.39L140.93,248.85L141.11,248.66L141.28,248.08L141.63,247.34L141.8,247.58L141.98,248.99L143.03,247.72L143.2,249.33L143.73,254.28L144.08,251.91L144.25,251.46L145.12,253.72L145.3,252.83L146,253.25L146.17,252.54L146.52,252.15L146.69,253.1L147.39,252.27L147.57,253.07L147.74,254.22L148.79,254.32L148.97,253.45L150.01,256.99L150.19,256.67L150.36,256.65L151.76,260.65L151.93,260.12L153.68,263.49L153.85,263.06L154.03,262.27L154.9,263.11L155.08,261.29L156.3,258.98L156.47,259.08L160.14,245.23L160.32,247.2L160.84,249.01L161.19,247.59L161.36,246.58L161.54,247.15L161.89,246.34L162.06,246.54L162.24,246.15L162.59,244.68L162.76,246.19L162.94,246.31L163.81,245.1L163.98,245.82L164.16,246.09L164.33,246.64L164.68,245.89L164.86,245.69L165.03,245.01L165.21,245.77L165.38,247.24L167.3,240.63L167.48,241.38L167.83,242.14L168,241.52L168.18,241.2L169.75,243.83L169.92,242.84L170.45,244.3L170.62,243.2L170.79,243.22L171.14,242.92L171.32,244.16L172.54,246.18L172.72,245.98L173.06,246.63L173.24,246.32L173.41,245.08L173.94,244.92L174.11,244.43L174.64,243.12L174.81,241.45L175.51,243.31L175.86,242.91L176.03,241.23L176.21,240.12L176.73,240.99L176.91,240.87L177.43,241.43L177.61,242.47L178.65,245.29L178.83,244.7L179.7,243.23L179.88,243.54L180.05,243.73L180.22,244.08L180.75,243.66L180.92,243.53L181.45,245.56L181.62,244.48L181.8,243.98L182.15,243.15L182.32,242.78L182.5,243.48L182.84,242.28L183.02,240.24L183.37,238.94L183.89,239.74L184.07,240.41L184.94,242.64L185.11,242.15L185.29,242.2L185.46,241.98L185.64,242.51L185.81,243.08L186.34,244.34L186.51,245.77L186.69,245.91L186.86,247.86L187.04,246.7L187.39,248.37L187.56,249.02L187.91,247.96L188.08,246.86L189.13,249.14L189.31,248.15L189.48,248.95L189.83,248.64L190,247.63L191.58,234.07L191.75,232.5L192.8,227.65L192.97,227.64L193.67,226.9L193.85,226.17L194.2,225.34L194.37,223.12L194.55,223.17L194.72,222.01L195.77,226.69L195.94,225.16L196.12,224.91L196.29,225.22L196.47,227.32L197.16,230.34L197.51,229.49L197.69,228.86L198.74,227.95L198.91,227.72L199.09,227.53L199.26,225.87L199.44,225.92L199.61,227.06L199.78,226.46L199.96,227.53L200.13,228.1L200.31,228.28L200.48,227.42L200.66,227.14L201.18,229.47L201.36,228.28L201.53,227.59L203.98,238.22L204.15,238.26L204.85,242.33L205.02,243.75L205.55,243.14L205.72,243.35L205.9,243.87L206.6,245.37L206.77,248.16L207.82,246.37L207.99,246.81L208.17,246.77L208.34,247.69L209.21,249.33L209.39,250.89L209.91,252.26L210.09,251.71L210.26,251.49L212.53,256.02L212.71,255.33L213.23,256.46L213.41,256.12L213.58,254.86L215.15,251.66L215.33,252.3L215.5,252.25L215.68,251.19L215.85,250.31L216.55,250.49L216.72,250.7L217.07,251.72L217.25,251.13L217.42,250.2L217.6,250.56L217.77,250.03L217.95,249.53L218.65,248.05L218.82,249.26L219.17,250L219.52,249.39L219.69,249.05L219.87,248.15L220.04,249.15L220.22,249.1L220.39,249.76L221.44,247.25L221.61,247.33L221.79,247.22L222.49,247.89L222.66,248.94L223.36,249.34L223.53,250.72L224.06,250.36L224.23,250.98L224.41,251.13L224.93,250.74L225.11,251.44L226.15,249.6L226.33,252.07L226.68,252.53L227.03,252.14L227.2,251.27L228.95,245.47L229.12,245.92L229.3,245.83L230.17,242.82L230.35,242.98L230.52,241.84L230.87,242.03L231.04,243.78L231.22,244.85L231.57,243.59L231.74,242.97L232.09,242.45L232.27,242.09L232.44,241.89L232.62,242.53L232.79,242.71L233.49,241.85L233.66,243.17L234.01,242.74L234.19,244.39L234.36,244.15L234.54,243.51L235.06,244.78L235.41,244.48L235.58,243.83L235.76,244.32L236.11,243.8L236.28,242.83L236.46,242.82L236.63,241.99L236.98,241.49L237.16,240L237.68,241.11L237.86,240.4L238.03,240.28L238.38,239.54L238.55,240.19L238.73,241.34L239.08,241.89L239.25,243.14L239.6,242.19L239.78,242.76L239.95,243.62L240.82,245.74L241,244.22L241.17,244.71L241.35,243.41L241.52,243.12L241.87,242.07L242.05,242.98L242.22,243.59L243.27,246.57L243.44,246.99L243.97,246.17L244.14,245.45L244.49,243.93L244.84,244.37L245.02,244.7L245.54,243.63L245.71,242.42L246.76,244.34L246.94,243.2L247.46,244.43L247.63,243.65L247.81,243.39L249.21,245.12L249.38,245.15L250.25,247.13L250.43,247.07L251.48,248.73L251.65,248.32L251.83,246.92L252.18,247.33L252.52,246.81L252.7,245.14L252.87,245.13L253.05,246.18L254.62,236.73L254.79,235.41L255.67,230.22L256.02,230.46L256.19,229.95L257.24,226.9L257.41,228.24L258.11,225.22L258.29,224.34L259.16,221.6L259.34,221.76L259.51,221.09L260.21,224.35L260.38,221.82L260.73,223.74L261.08,222.06L261.26,221.69L261.43,221.7L261.61,219.52L262.3,222.11L262.48,221.32L262.65,220.87L263.88,225.38L264.05,224.24L265.1,229.95L265.27,228.56L266.32,234.43L266.5,234.16L268.07,241.28L268.24,241.74L268.77,239.79L268.94,241.46L269.12,242.08L269.29,243.65L269.81,242.21L269.99,242.82L270.69,244.48L270.86,244.79L271.73,246.26L271.91,245.46L272.08,246.02L272.26,244.75L272.43,244.18L273.66,247.81L273.83,247.67L274.7,249.23L274.88,249.45L275.58,251.07L275.75,249.94L276.28,247.64L276.45,248.95L277.67,253.71L277.85,253.74L279.42,256.98L279.59,257.78L281.51,263.12L281.69,262.51L281.86,261.58L282.04,261.56L282.21,260.66L282.74,262.34L283.09,261.51L283.26,261.45L284.13,258.67L284.48,259.2L284.66,259.49L284.83,259.14L285.18,259.72L285.36,260.52L285.88,260.83L286.05,259.55L286.93,259.54L287.1,259.94L288.15,262.04L288.33,261.07L289.37,263.01L289.55,262.09L290.94,259.3L291.12,258.98L291.82,260.77L291.99,259.72L292.17,260.4L294.61,253.62L294.79,254.18L294.96,254.62L295.14,253.46L295.31,252.68L295.66,251.99L295.83,250.05L297.06,247.83L297.23,248.83L297.41,248.72L297.58,249.45L297.76,249.48L298.1,248.99L298.63,250.39L298.8,248.41L299.68,249.24L299.85,249.84L300.03,248.9L300.55,249.34L300.72,249.97L301.42,254.14L301.6,253.34L301.77,252.43L303.17,246.85L303.34,247.55L304.74,252.2L304.92,251.85L305.44,251.48L305.79,253.16L305.96,252.23L306.66,250.74L306.84,251.51L307.01,252.05L307.19,252.94L307.54,251.61L307.71,251.08L308.06,249.59L308.58,249.69L308.76,249.35L309.28,246.82L309.63,247.41L309.81,247.95L311.03,244.05L311.2,244.49L311.55,242.35L311.9,244.47L312.08,244.55L312.77,244.83L312.95,245.49L314.52,250.59L314.7,250.18L315.39,249.35L315.57,250.51L316.44,251.93L316.62,252.77L316.79,254.41L316.97,251.73L317.14,252.32L317.31,250.62L317.66,247.66L317.84,248.51L318.01,249.81L320.98,237.51L321.16,238.07L321.33,237.78L321.86,238.33L322.03,238.26L322.2,238.46L322.38,237.42L322.9,242.12L323.43,240.73L323.6,241.47L324.82,245.19L325,244.53L325.17,246.07L325.52,243.99L325.7,243.48L326.22,246L326.57,245.16L326.75,244.54L327.27,242.29L327.79,243.02L327.97,242.68L328.49,243.27L328.67,242.64L328.84,241.27L329.36,241.87L329.54,242.48L329.71,242.94L329.89,241.19L330.06,241.03L330.24,242.7L330.59,243.55L330.76,245.1L331.46,241.9L331.63,242.7L331.81,243.68L332.16,243.73L332.33,244.32L333.03,246.75L333.38,246.21L333.56,245.28L334.43,248.59L334.6,247.99L334.78,247.38L334.95,246.85L335.13,248.76L336.87,254.29L337.05,253.27L337.22,252.59L337.75,253.94L337.92,253.58L338.1,252.73L338.27,252.64L338.45,254.01L338.97,256.42L339.49,255.98L339.67,255.2L340.72,258.31L340.89,257.53L341.07,256.71L341.41,258.09L341.59,258.62L342.11,257.82L342.29,258.4L342.46,260.15L342.81,260.84L342.99,261.2L343.86,259.26L344.21,259.57L344.38,260.86L345.61,261.69L345.78,260.74L345.96,259.81L346.3,260.89L346.48,261.18L347.35,259.86L347.53,260.23L348.05,258.77L348.4,259.95L348.57,260.29L348.92,259.58L349.1,258.95L349.27,259.06L349.45,257.65L350.32,254.44L350.5,255.04L350.67,255.06L352.07,250.63L352.24,251.92L352.42,251.31L352.59,252.06L353.12,251.53L353.29,251.58L353.99,251.31L354.16,251.83L354.51,250.83L354.69,252.12L354.86,252.63L355.04,252.06L355.21,251.12L356.08,253.67L356.26,252.73L356.43,252.44L356.96,251.97L357.13,252.66L357.31,251.81L357.66,252L358.01,249.17L358.18,248.08L358.35,249.23L358.88,248.93L359.05,248.39L359.4,246.91L359.75,248.15L359.93,247.87L360.62,248.91L360.8,248.44L360.97,248L361.15,247.67L361.32,248.18L361.5,248.73L361.85,249.02L362.2,248.61L362.37,247.51L362.89,247.1L363.42,250.13L363.59,249.37L363.77,249.08L364.12,247.95L364.29,248.85L364.47,249.56L365.34,247.09L365.51,248.32L366.04,249.38L366.21,249.09L366.39,247.88L367.26,245.4L367.44,246.37L367.61,247.51L367.96,246.14L368.48,246.55L368.66,246.64L369.18,246.35L369.36,247.09L369.53,246.02L370.05,247.26L370.23,246.82L370.58,247.18L371.1,245.84L371.28,245.53L372.67,248.86L372.85,248.23L373.02,250.14L374.42,252.33L374.6,251.75L375.99,253.46L376.17,253.09L376.34,252.95L376.52,252.33L376.87,253.06L377.04,253.92L377.22,254.24L377.39,253.09L377.56,252.35L377.74,253.02L378.26,252.71L378.44,252.54L378.61,252.91L378.79,251.19L379.14,250.83L379.31,251.92L380.18,250.92L380.36,252.16L380.53,252.62L380.71,252.21L380.88,251.29L382.8,243.54L382.98,243.06L383.85,240.42L384.03,240.97L384.38,240.08L384.9,240.36L385.07,240.19L385.42,241.81L385.77,240.33L385.95,240.23L386.12,239.39L386.47,240.5L386.65,240.62L386.82,240.52L386.99,241.39L387.34,240.24L387.69,240.5L387.87,242.44L388.04,243.1L388.39,242.71L388.57,241.41L388.92,240.08L389.44,240.62L389.61,241.7L390.84,235.01L391.01,236.28L391.71,236.48L391.88,235.63L392.06,235.69L392.23,234.52L394.15,241.1L394.33,240.82L394.5,239.78L394.85,237.93L395.03,239.38L395.38,239.06L395.73,240.82L396.08,240.48L396.25,240.3L396.6,242.23L396.77,243.16L396.95,242.73L397.12,243.86L397.3,244.25L397.65,245.72L398.17,244.91L398.35,244.77L398.52,244.06L398.87,245.42L399.04,245.62L399.39,244.96L399.74,245.82L399.92,247.37L401.31,253.85L401.49,253.44L401.66,253.72L402.54,255.25L402.71,255.92L403.76,259.15L403.93,260.19L404.11,260.28L404.28,261.43L404.46,260.97L404.63,262.05L404.81,262.74L404.98,263.52L405.51,263.25L405.68,263.19L406.55,263.03L406.73,263.78L406.9,263.38L407.43,264.02L407.6,264.17L408.13,263.09L408.3,263.35L408.48,264.08L409.17,261.5L409.52,261.86L409.7,262.23L410.92,258.28L411.09,257.77L412.32,256.14L412.49,255.8L413.54,254.27L413.71,254.42L414.06,254.67L414.24,255.24L414.41,255.76L414.76,255.18L414.94,254.96L415.29,255.77L415.46,254.82L415.64,253.64L416.68,256.55L416.86,255.22L417.03,255.38L417.38,254.92L417.56,255.3L417.73,255.95L417.91,254.81L418.25,256.41L418.43,256.5L418.78,255.67L418.95,254.53L419.13,255.34L419.48,254.18L419.65,254.19L419.83,253.02L420.35,253.8L420.52,253.86L421.22,256.53L421.75,255.98L421.92,255.55L422.1,256.21L422.62,255.59L422.8,255.82L422.97,255.19L423.14,256.22L423.49,255.84L423.67,256.11L424.02,254.13L424.54,254.75L424.72,256.01L424.89,255.92L425.07,256.54L425.24,254.4L425.76,252.7L425.94,253.22L426.11,253.59L427.16,251.55L427.34,252.07L427.51,252.04L428.73,250.76L428.91,251.08L429.08,252.7L429.43,254.47L429.78,253.53L429.96,253.68L430.3,253.52L430.48,254.4L431,255.67L431.18,254.91L431.35,254.68L431.7,255.11L431.88,256.29L432.57,255.08L432.75,255.71L432.92,256.04L434.15,256.31L434.32,255.97L435.19,253.36L435.37,253.55L435.54,254.64L435.72,255.38L436.07,254.35L436.24,252.53L436.42,251.95L436.77,252.88L436.94,253L437.12,252.78L437.29,253.23L437.46,254.24L438.16,254.03L438.34,253.75L440.08,250.76L440.26,252.95L440.61,254.63L441.13,254L441.31,253.25L441.66,255.55L442.01,254.22L442.18,254.03L442.7,251.89L443.23,252.06L443.4,252.75L444.62,250.99L444.8,251.56L445.85,246.03L446.02,246.02L446.72,242.93L446.9,243.4L447.07,244.35L447.42,244.11L447.59,244.98L447.77,244.46L447.94,243.72L448.64,241.57L448.99,242.85L449.17,242.73L450.21,248.03L450.74,247.8L450.91,248.05L451.09,246.55L451.44,249.26L451.61,250.75L451.78,251.89L452.13,249.76L452.31,248.39L452.48,248.48L452.66,248.12L452.83,247.33L453.88,250.99L454.06,250.39L454.93,246.34L455.45,246.48L455.63,247.32L455.98,246.12L456.15,247.5L456.33,248.28L456.85,246.44L457.02,246.91L457.2,248.55L458.07,250.93L458.42,250.25L458.6,250.19L459.47,251.84L459.64,250.86L461.22,256.97L461.39,257.02L462.09,257.6L462.26,257.13L464.71,262.81L464.88,264L465.76,262.58L465.93,263.28L466.8,260.55L467.33,261.09L467.5,261.54L468.55,261.67L468.72,262.28L469.42,261.43L469.6,261.9L469.77,261.99L470.47,261.11L470.65,261.57L470.82,261.76L471.69,262.16L471.87,262.31L472.74,263.29L472.92,261.98L473.79,262.49L473.96,261.85L474.84,259.92L475.01,260.09L475.19,260.35L475.54,259.79L475.71,261.11L475.88,260.97L477.28,260.4L477.46,261.47L477.63,262.03L477.81,260.38L477.98,259.49L478.16,260.05L478.5,259.3L478.68,258.83L478.85,259.04L479.03,258.2L479.2,257.83L479.38,258.67L480.08,258.37L480.25,256.86L481.47,255.2L481.65,255.54L481.82,256.03L482,256.23L482.17,253.73L482.35,253.9L482.52,253.62L482.7,252.04L482.87,251.79L483.04,252.72L483.22,252.6L483.39,252.65L483.74,252.66L483.92,251.19L484.09,251.11L484.27,251.5L484.44,251.95L484.97,251.39L485.14,251.7L485.32,250.34L486.19,253.19L486.36,252.1L487.41,255.35L487.59,253.62L487.76,253.42L487.93,254.49L488.11,254.08L488.28,254.85L488.46,254.92L488.63,254.89L488.81,255.02L488.98,253.69L489.68,255.22L489.86,254.79L490.03,253.97L490.38,254L490.55,255.32L492.3,249.09L492.48,248.81L492.65,248.99L492.82,250.45L494.05,248.66L494.22,249.68L494.92,248.25L495.09,249.03L495.27,249.84L495.97,250.58L496.14,250.34L496.32,249.87L496.67,251.57L497.19,250.94L497.37,251.73L498.59,254.67L498.76,254.12L499.64,255.33L499.81,254.53L500.68,255.92L500.86,255.46L501.03,255.46L501.21,254.76L501.38,255.52L501.56,256.57L502.25,255.67L502.43,256.25L502.6,257.04L503.3,255.95L503.48,256.96L504.18,259.83L504.7,259.63L504.87,259.19L505.57,261.26L505.92,260.82L506.1,260.43L506.62,261.46L506.97,261.05L507.14,261.17L507.49,262.48L507.84,261.09L508.02,261.57L508.19,261.37L508.37,259.97L508.54,260.47L508.89,260.18L509.07,259.16L509.94,258.06L510.11,258.81L510.29,256.59L511.86,252.41L512.03,252.78L512.21,250.87L513.61,248.25L513.78,249.04L514.13,247.69L514.3,248.98L514.83,247.9L515,248.11L515.18,248.87L515.35,248.32L515.53,249.81L515.7,249.61L515.88,249.52L516.05,248.77L516.4,250.27L516.58,250.66L516.92,249.95L517.8,254.32L517.97,252.53L518.15,252.34L518.32,252.53L518.5,254.4L518.85,255.29L519.19,254.26L519.37,254.45L519.72,253.66L519.89,254.27L520.07,255.45L520.42,254.9L520.59,253.57L521.99,250.1L522.16,252.43L522.51,252.98L522.69,252.51L522.86,251.24L523.04,250.93L523.21,251.88L523.39,252.14L523.56,252.42L523.74,251.89L523.91,250.7L524.78,251.12L524.96,250.72L525.66,247.95L525.83,248.97L526.01,248.61L527.23,241.6L527.4,239.01L528.8,229.34L528.97,228.36L529.15,228.2L529.32,226.99L530.37,218.4L530.55,216.8L532.64,205.63L532.99,206.5L533.17,206.85L534.74,200.92L534.91,200.99L535.09,202.41L535.96,202.28L536.13,201.16L536.31,200.36L536.66,202.14L536.83,202.42L538.4,216.29L538.58,216.56L538.93,216.19L539.1,217.74L539.28,217.92L539.45,219.28L542.95,234.97L543.12,234.56L543.47,233.18L543.64,234.15L543.82,235.25L543.99,235.3L544.17,236.6L544.34,236.36L544.52,236.89L544.69,236.66L544.87,237.47L545.39,237.93L545.56,237.49L545.74,236.78L546.61,239.11L546.96,238.12L547.14,237.31L548.53,236.25L548.71,237.67L548.88,237.76L549.06,236.67L549.76,237.78L550.11,237.47L550.28,237.87L550.8,238.71L551.85,232.81L552.03,233.1L552.2,234.11L552.38,234.12L552.55,232.93L552.72,231.81L553.07,232.05L553.25,233.32L554.47,231.85L554.65,232.33L554.82,233.07L555.69,232.07L555.87,232.09L556.92,237.75L557.09,237.47L557.27,236.5L557.44,236.27L557.61,236.65L557.79,238.35L558.31,240.98L558.66,239.33L558.84,238.76L559.01,240.38L559.54,239.34L559.71,238.57L560.41,238.91L560.58,239.78L560.93,240.51L561.11,240.07L561.28,239.35L561.63,238.24L561.98,239.22L562.16,239.61L562.85,242.71L563.2,242.02L563.38,241.87L563.55,240.5L564.08,241.85L564.25,242.2L565.3,244.94L565.65,244.76L565.82,244.54L566.35,245.99L566.52,246.19L567.05,248.52L567.39,248.08L567.57,247.49L567.74,246.34L568.27,247.18L568.44,247.05L569.32,247.93L569.49,246.93L569.84,247.92L570.36,247.52L570.54,246.91L571.93,245.9L572.11,245.4L573.16,241.74L573.33,241.95L573.51,241.94L574.55,240.78L574.73,241.98L576.13,244.58L576.3,244.05L576.48,244.59L576.82,244.2L577,243.72L577.52,244.84L577.7,245.81L578.92,249.97L579.1,250.05L579.62,250.19L579.79,251.15L580.84,248.17L581.02,249.58L581.89,246.09L582.06,246.42L582.24,248.05L582.41,248.5L582.76,247.67L582.94,247.78L583.11,247.22L583.29,247.81L583.46,248.91L583.98,249.45L584.16,247.85L584.51,248.43L584.68,249.14L586.08,252.23L586.26,251.58L587.13,254.09L587.3,253.72L587.48,252.91L587.83,252.55L588,252.62L588.18,253.63L589.22,250.31L589.4,251.92L591.32,245.39L591.49,243.78L591.84,244.1L592.54,241.88L592.72,241.8L593.24,243L593.42,241.34L594.46,235.78L594.64,236.69L594.81,237.27L596.38,241.98L596.56,243.15L597.26,247.62L597.43,246.3L597.61,247.05L598.48,248.63L598.65,249.49L599.7,257.34L600.23,256.43L600.4,256.2L600.75,257.16L601.27,256.61L601.45,256.08L602.67,253.3L602.85,253.32L603.19,253.91L604.94,250.96L605.12,251.17L605.29,251.78L607.04,254.5L607.21,254.56L608.78,257.3L608.96,256.91L609.31,258.77L609.83,258.65L610.01,258.53L610.18,258.97L610.53,258.04L610.7,257.06L611.4,254.99L611.58,255.61L611.75,255.86L612.1,256.45L612.28,255.86L612.45,255.31L613.32,253.05L613.5,253.51L614.9,251.85L615.07,250.79L616.12,247.41L616.29,247.14L617.52,242.95L617.86,243.96L618.04,243.61L618.39,242.65L618.74,243.63L618.91,243.32L619.26,243.32L619.44,244.3L620.31,247.52L620.48,249.45L621.88,254.68L622.06,253.94L623.45,258.12L623.63,257.84L623.8,258.11L623.98,258.31L624.15,257.69L624.33,257.21L624.5,257.69L624.68,257.02L624.85,257L625.02,256.47L626.07,253.71L626.25,254.27L626.95,256.56L627.29,255.34L627.47,254.57L627.99,253.72L628.17,253L628.87,255.23L629.04,254.94L629.22,253.68L629.39,253.88L629.56,253.17L629.74,252.67L629.91,253.25L630.09,252.5L630.44,252.61L630.61,251.91L630.79,251.5L630.96,252.42L631.14,253.5L632.18,250.8L632.36,251.5L632.53,252.49L632.88,251.54L633.06,250.75L633.58,249.99L633.76,248.71L634.45,244.29L634.98,244.55L635.15,243.81L635.85,244.57L636.03,243.57L636.55,240.94L636.73,240.22L637.6,237.51L637.77,235.5L639,237.79L639.17,237.4L639.34,236.27L639.69,239.52L640.04,238.84L640.22,237.18L641.09,235.89L641.27,235.47L642.49,233.2L642.84,233.6L643.01,234.47L643.71,233.53L643.89,231.96L644.23,232.58L644.41,234.35L644.58,236.11L644.93,233.27L645.11,234.18L645.28,233.93L645.46,236.27L646.16,235.61L646.33,236.7L647.73,246.6L647.9,246.34L648.08,247.48L648.43,248.11L648.6,248.99L650.17,252.72L650.35,252.97L651.05,257.04L651.39,255.76L651.57,255.75L652.62,253.4L652.79,253.73L652.97,253.06L653.32,253.66L653.49,255.12L653.66,255.89L654.01,254.69L654.19,254.12L655.76,255.99L655.94,255.39L656.11,255.25L656.28,254.04L657.16,256.32L657.33,255.65L657.51,255.59L657.86,256.47L658.03,257.44L659.08,256.9L659.25,257.23L661,257.47L661.17,258.24L661.35,258.29L661.52,259.18L662.57,261.37L662.75,260.67L662.92,260.56L663.62,260.23L663.79,259.05L664.14,257.02L664.67,257.68L664.84,257.82L667.29,251.6L667.46,250.77L667.81,250.1L668.16,250.8L668.33,250.79L668.86,249.41L669.21,250.13L669.38,250.55L669.56,250.53L669.73,249.32L670.08,248.9L670.26,249.75L670.43,250.14L670.6,250.06L670.78,250.68L670.95,250.96L671.13,250.73L671.3,251.8L671.48,252.5L672,251.84L672.18,252L673.05,253.18L673.22,252.3L674.27,250.44L674.45,251.52L675.32,252.54L675.49,251.99L676.72,250.48L676.89,250.82L677.07,251.74L678.99,257.41L679.16,256.44L679.69,257.96L679.86,256.24L680.03,256.09L680.21,256.82L680.56,255.85L680.73,255.74L681.61,253.6L681.78,253.93L681.96,254.01L682.13,254.16L682.31,252.57L684.92,249.12L685.1,250.89L687.2,251.6L687.37,250.78L687.54,251.36L687.89,250.64L688.07,249.82L689.81,248.36L689.99,247.92L690.69,246.83L690.86,248.06L691.39,248.63L691.56,248.99L691.74,248.66L692.08,249.52L692.26,249.7L692.61,250.23L692.78,249.27L692.96,249.23L693.48,249.63L693.66,249.03L693.83,248.51L694.36,247.53L694.53,248L694.7,248.26L695.75,249.41L695.93,249.57L696.1,250.06L696.28,248.58L696.45,247.89L696.63,248.24L696.97,247.55L697.15,247.78L697.32,247.52L697.85,246.61L698.02,247.47L698.2,247.06L698.55,247.78L698.72,248.4L699.94,251.05L700.12,249.63L700.64,247.1L700.99,248.31L701.17,248.51L701.34,248.3L701.52,249.32L701.69,249.16L701.86,247.91L702.74,246.13L702.91,246.64L703.09,247.1L703.44,247.69L703.61,247.04L703.79,246.67L705.01,241.44L705.18,241.8L705.88,244.94L706.06,244.33L706.23,243.62L706.58,242.75L706.93,242.93L707.1,243.26L707.98,245.27L708.15,244.61L709.02,242.34L709.2,244.09L710.42,247.86L710.6,248.1L711.64,250.17L711.82,250.01L711.99,249.96L712.69,251.13L712.87,250.89L713.04,251.44L713.22,250.78L713.74,251.52L713.91,252.18L714.96,255.14L715.14,255.06L715.31,255.47L715.84,254.98L716.01,253.55L716.18,253.32L716.36,253.54L716.53,254.49L717.93,258.28L718.11,259.17L718.8,260.03L718.98,260.75L719.33,261.36L719.68,260.94L719.85,260.44L720.2,259.29L720.38,260.39L720.55,260.72L721.6,262.12L721.77,261.85L721.95,262.17L723.69,258.44L723.87,258.7L724.39,258.32L724.57,257.57L725.09,258.77L725.27,259.58L725.44,260.22L725.79,259.13L725.96,258.8L726.84,257.76L727.01,258.11L727.19,257.06L727.71,258.72L728.06,258L728.23,257.11L728.76,255.87L728.93,256.52L729.11,256.63L731.03,247.94L731.2,248.09L731.73,248.41L731.9,247.23L733.12,248.87L733.3,248.85L734.35,247.28L734.52,247.83L734.87,247.59L735.05,248.5L737.14,251.83L737.32,250.45L737.67,249.46L737.84,250.06L738.01,250.89L738.54,249.61L738.89,249.74L739.06,250.43L739.59,250.85L739.76,251.57L740.46,250.93L740.63,251.41L740.81,250.48L741.16,252.57L741.33,253.03L742.38,250.74L742.55,251.69L742.9,251.58L743.08,250.02L743.25,249.36L743.6,249.94L743.78,250.96L744.65,249.41L744.83,249.77L745,249.86L745.52,250.11L745.7,249.45L746.92,247.61L747.1,247.64L747.27,246.78L747.79,247.4L747.97,247.45L749.37,248.91L749.54,250.11L750.59,247.95L750.76,248.45L750.94,248.71L751.11,249.52L751.46,248.97L751.64,248.36L751.81,247.72L751.99,248.93L752.16,248.76L752.33,249.69L752.68,250.59L752.86,249.94L753.03,248.86L753.56,249.73L753.91,249.4L754.08,247.66L754.78,246.44L754.95,247.39L755.3,247.69L755.48,246.67L755.83,246.39L756,245.53L757.05,247.48L757.22,247.1L757.4,246.62L758.62,244.1L758.8,243.77L759.15,244.21L759.32,246.21L760.37,242.89L760.54,243.38L760.72,244.88L761.76,248.22L761.94,248.16L762.11,248.55L762.99,247.25L763.16,247.99L763.34,248.56L763.69,248.75L764.04,248.25L764.21,248.55L765.08,245.42L765.43,245.63L765.61,246.72L765.78,247.07L765.96,245.86L766.13,244.37L767.7,237.98L767.88,239.33L768.23,240.1L768.4,239.47L768.58,238.26L768.93,236.84L769.1,234.93L769.62,234.41L769.8,233.71L770.15,232.59L770.5,233.51L770.67,233.64L771.54,231.53L771.72,233.08L773.47,226.65L773.81,227.43L773.99,227.35L774.51,229.78L775.04,229.49L775.21,230.4L775.74,231.68L775.91,231.07L776.09,230.92L777.31,235.88L777.48,234.73L778.53,241.5L778.7,241.08L778.88,241.82L780.8,247.04L780.97,246.91L782.02,249.02L782.2,247.92L784.29,253.01L784.47,252.87L784.64,252.51L784.82,252.85L784.99,254.07L785.17,253.11L785.34,254.62L785.69,253.6L785.86,253.79L786.74,254.77L786.91,254.28L787.26,255.37L787.44,256.96L787.79,257.25L789.53,254.47L789.71,254.71L789.88,254.99L790.23,254.58L790.41,255.91L790.58,254.88L790.75,254.38L791.45,255.82L791.63,255.51L791.8,255.18L792.85,253.95L793.2,254.5L793.37,254.72L793.9,254.99L794.07,255.34L794.25,255.41L794.42,254.6L795.3,253.93L795.47,254.49L795.64,253.19L795.99,253.61L796.34,252.6L796.52,252.75L796.69,252.75L797.39,253.73L797.57,253.66L797.74,253.23L798.44,251.6L798.79,252.11L798.96,252.16L799.14,252.48L799.31,252.34L799.49,251.31L800.01,252.08L800.18,251.47L800.36,251.74L801.41,250.58L801.58,250.74L802.28,249.2L802.46,249.23L802.63,248.4L803.85,246.26L804.03,246.3L804.9,245.92L805.07,246.65L805.25,246.2L805.6,247.1L805.77,247.57L807,249.47L807.17,248.59L808.92,250.43L809.09,250.13L809.96,249.98L810.14,250.74L810.84,249.02L811.01,249.13L811.19,249.15L811.89,249.04L812.06,249.7L812.58,250.16L812.76,250.42L813.11,249.02L813.46,250.49L813.63,249.77L813.81,250.77L814.16,249.59L814.51,250.56L814.68,250.66L815.2,248.5L815.38,247.39L815.73,248.62L816.25,248.08L816.43,247.72L817.3,246.9L817.47,246.26L818.17,244.91L818.35,245.45L818.52,244.97L819.05,242.71L819.39,243.32L819.57,243.7L820.09,243.18L820.27,244.24L820.79,247.27L820.97,246.2L821.14,245.2L821.32,245.74L821.49,245.36L821.67,244.18L822.19,244.66L822.36,245.23L822.54,244.87L822.71,245.7L822.89,247.15L823.41,246.51L825.33,252.08L825.51,251.6L825.86,250.6L827.08,257.01L827.25,256.88L827.43,256.09L828.3,257.1L828.48,257.76L828.83,259.82L829,251.3" style="vector-effect: none; fill: none; stroke: rgb(148, 103, 189); stroke-opacity: 1; stroke-width: 2px; opacity: 1;"/></g><g class="points"/><g class="text"/></g></g></g></g><g class="zerolinelayer-above"/><path class="xlines-above crisp" d="M0,0" style="fill: none;"/><path class="ylines-above crisp" d="M0,0" style="fill: none;"/><g class="overlines-above"/><g class="xaxislayer-above"><g class="xtick"><text text-anchor="middle" x="0" y="360" transform="translate(61,0)" style="font-family: 'Open Sans', verdana, arial, sans-serif; font-size: 12px; fill: rgb(42, 63, 95); fill-opacity: 1; white-space: pre;">2012</text></g><g class="xtick"><text text-anchor="middle" x="0" y="360" style="font-family: 'Open Sans', verdana, arial, sans-serif; font-size: 12px; fill: rgb(42, 63, 95); fill-opacity: 1; white-space: pre;" transform="translate(188.66,0)">2014</text></g><g class="xtick"><text text-anchor="middle" x="0" y="360" style="font-family: 'Open Sans', verdana, arial, sans-serif; font-size: 12px; fill: rgb(42, 63, 95); fill-opacity: 1; white-space: pre;" transform="translate(316.14,0)">2016</text></g><g class="xtick"><text text-anchor="middle" x="0" y="360" style="font-family: 'Open Sans', verdana, arial, sans-serif; font-size: 12px; fill: rgb(42, 63, 95); fill-opacity: 1; white-space: pre;" transform="translate(443.8,0)">2018</text></g><g class="xtick"><text text-anchor="middle" x="0" y="360" style="font-family: 'Open Sans', verdana, arial, sans-serif; font-size: 12px; fill: rgb(42, 63, 95); fill-opacity: 1; white-space: pre;" transform="translate(571.29,0)">2020</text></g><g class="xtick"><text text-anchor="middle" x="0" y="360" style="font-family: 'Open Sans', verdana, arial, sans-serif; font-size: 12px; fill: rgb(42, 63, 95); fill-opacity: 1; white-space: pre;" transform="translate(698.95,0)">2022</text></g><g class="xtick"><text text-anchor="middle" x="0" y="360" style="font-family: 'Open Sans', verdana, arial, sans-serif; font-size: 12px; fill: rgb(42, 63, 95); fill-opacity: 1; white-space: pre;" transform="translate(826.43,0)">2024</text></g></g><g class="yaxislayer-above"><g class="ytick"><text text-anchor="end" x="60" y="4.199999999999999" transform="translate(0,331.65)" style="font-family: 'Open Sans', verdana, arial, sans-serif; font-size: 12px; fill: rgb(42, 63, 95); fill-opacity: 1; white-space: pre;">0</text></g><g class="ytick"><text text-anchor="end" x="60" y="4.199999999999999" style="font-family: 'Open Sans', verdana, arial, sans-serif; font-size: 12px; fill: rgb(42, 63, 95); fill-opacity: 1; white-space: pre;" transform="translate(0,276.39)">20</text></g><g class="ytick"><text text-anchor="end" x="60" y="4.199999999999999" style="font-family: 'Open Sans', verdana, arial, sans-serif; font-size: 12px; fill: rgb(42, 63, 95); fill-opacity: 1; white-space: pre;" transform="translate(0,221.13)">40</text></g><g class="ytick"><text text-anchor="end" x="60" y="4.199999999999999" style="font-family: 'Open Sans', verdana, arial, sans-serif; font-size: 12px; fill: rgb(42, 63, 95); fill-opacity: 1; white-space: pre;" transform="translate(0,165.87)">60</text></g><g class="ytick"><text text-anchor="end" x="60" y="4.199999999999999" style="font-family: 'Open Sans', verdana, arial, sans-serif; font-size: 12px; fill: rgb(42, 63, 95); fill-opacity: 1; white-space: pre;" transform="translate(0,110.61)">80</text></g><g class="ytick"><text text-anchor="end" x="60" y="4.199999999999999" style="font-family: 'Open Sans', verdana, arial, sans-serif; font-size: 12px; fill: rgb(42, 63, 95); fill-opacity: 1; white-space: pre;" transform="translate(0,55.35)">100</text></g></g><g class="overaxes-above"/></g></g><g class="polarlayer"/><g class="smithlayer"/><g class="ternarylayer"/><g class="geolayer"/><g class="funnelarealayer"/><g class="pielayer"/><g class="iciclelayer"/><g class="treemaplayer"/><g class="sunburstlayer"/><g class="glimages"/><defs id="topdefs-5f8b76"><g class="clips"/><clipPath id="legend5f8b76"><rect width="81" height="48" x="0" y="0"/></clipPath></defs><g class="layer-above"><g class="imagelayer"/><g class="shapelayer"><g class="shape-group" data-index="0" clip-path="url(#clip5f8b76x)"><path data-index="0" fill-rule="evenodd" d="M581.77,347H698.77V40H581.77Z" style="opacity: 0.2; stroke: rgb(0, 0, 0); stroke-opacity: 0; fill: rgb(255, 204, 204); fill-opacity: 1; stroke-width: 0px;"/></g></g></g><g class="infolayer"><g class="legend" pointer-events="all" transform="translate(906.58,40)"><rect class="bg" shape-rendering="crispEdges" style="stroke: rgb(68, 68, 68); stroke-opacity: 1; fill: rgb(255, 255, 255); fill-opacity: 1; stroke-width: 0px;" width="81" height="48" x="0" y="0"/><g class="scrollbox" transform="" clip-path="url(#legend5f8b76)"><g class="groups"><g class="traces" transform="translate(0,14.5)" style="opacity: 1;"><text class="legendtext" text-anchor="start" x="40" y="4.680000000000001" style="font-family: 'Open Sans', verdana, arial, sans-serif; font-size: 12px; fill: rgb(42, 63, 95); fill-opacity: 1; white-space: pre;">Diária</text><g class="layers" style="opacity: 0.3;"><g class="legendfill"/><g class="legendlines"><path class="js-line" d="M5,0h30" style="fill: none; stroke: rgb(214, 39, 40); stroke-opacity: 1; stroke-width: 1px;"/></g><g class="legendsymbols"><g class="legendpoints"/></g></g><rect class="legendtoggle" x="0" y="-9.5" width="75.85546875" height="19" style="fill: rgb(0, 0, 0); fill-opacity: 0;"/></g><g class="traces" transform="translate(0,33.5)" style="opacity: 1;"><text class="legendtext" text-anchor="start" x="40" y="4.680000000000001" style="font-family: 'Open Sans', verdana, arial, sans-serif; font-size: 12px; fill: rgb(42, 63, 95); fill-opacity: 1; white-space: pre;">MM30</text><g class="layers" style="opacity: 1;"><g class="legendfill"/><g class="legendlines"><path class="js-line" d="M5,0h30" style="fill: none; stroke: rgb(148, 103, 189); stroke-opacity: 1; stroke-width: 2px;"/></g><g class="legendsymbols"><g class="legendpoints"/></g></g><rect class="legendtoggle" x="0" y="-9.5" width="75.85546875" height="19" style="fill: rgb(0, 0, 0); fill-opacity: 0;"/></g></g></g><rect class="scrollbar" rx="20" ry="3" width="0" height="0" style="fill: rgb(128, 139, 164); fill-opacity: 1;" x="0" y="0"/></g><g class="g-gtitle"><text class="gtitle" x="50" y="20" text-anchor="start" dy="0em" style="opacity: 1; font-family: 'Open Sans', verdana, arial, sans-serif; font-size: 17px; fill: rgb(42, 63, 95); fill-opacity: 1; white-space: pre;">Mortalidade ao Longo do Tempo</text></g><g class="g-xtitle"><text class="xtitle" x="475.5" y="387.3" text-anchor="middle" style="opacity: 1; font-family: 'Open Sans', verdana, arial, sans-serif; font-size: 14px; fill: rgb(42, 63, 95); fill-opacity: 1; white-space: pre;">Data</text></g><g class="g-ytitle"><text class="ytitle" transform="rotate(-90,17.709375,193.5)" x="17.709375" y="193.5" text-anchor="middle" style="opacity: 1; font-family: 'Open Sans', verdana, arial, sans-serif; font-size: 14px; fill: rgb(42, 63, 95); fill-opacity: 1; white-space: pre;">Taxa de Óbito (%)</text></g></g></svg>